<?xml version="1.0" encoding="utf-8"?>
<svg xmlns="http://www.w3.org/2000/svg" xmlns:xlink="http://www.w3.org/1999/xlink" width="600" height="400" viewBox="0 0 2400 1600">
<defs>
  <clipPath id="clip3000">
    <rect x="0" y="0" width="2400" height="1600"/>
  </clipPath>
</defs>
<polygon clip-path="url(#clip3000)" points="
0,1600 2400,1600 2400,0 0,0 
  " fill="#ffffff" fill-rule="evenodd" fill-opacity="1"/>
<defs>
  <clipPath id="clip3001">
    <rect x="480" y="0" width="1681" height="1600"/>
  </clipPath>
</defs>
<polygon clip-path="url(#clip3000)" points="
312.768,1400.47 2352.76,1400.47 2352.76,47.2441 312.768,47.2441 
  " fill="#ffffff" fill-rule="evenodd" fill-opacity="1"/>
<defs>
  <clipPath id="clip3002">
    <rect x="312" y="47" width="2041" height="1354"/>
  </clipPath>
</defs>
<polyline clip-path="url(#clip3002)" style="stroke:#000000; stroke-width:2; stroke-opacity:0.1; fill:none" points="
  370.503,1400.47 370.503,47.2441 
  "/>
<polyline clip-path="url(#clip3002)" style="stroke:#000000; stroke-width:2; stroke-opacity:0.1; fill:none" points="
  936.538,1400.47 936.538,47.2441 
  "/>
<polyline clip-path="url(#clip3002)" style="stroke:#000000; stroke-width:2; stroke-opacity:0.1; fill:none" points="
  1502.57,1400.47 1502.57,47.2441 
  "/>
<polyline clip-path="url(#clip3002)" style="stroke:#000000; stroke-width:2; stroke-opacity:0.1; fill:none" points="
  2068.61,1400.47 2068.61,47.2441 
  "/>
<polyline clip-path="url(#clip3002)" style="stroke:#000000; stroke-width:2; stroke-opacity:0.1; fill:none" points="
  312.768,1362.17 2352.76,1362.17 
  "/>
<polyline clip-path="url(#clip3002)" style="stroke:#000000; stroke-width:2; stroke-opacity:0.1; fill:none" points="
  312.768,1043.01 2352.76,1043.01 
  "/>
<polyline clip-path="url(#clip3002)" style="stroke:#000000; stroke-width:2; stroke-opacity:0.1; fill:none" points="
  312.768,723.856 2352.76,723.856 
  "/>
<polyline clip-path="url(#clip3002)" style="stroke:#000000; stroke-width:2; stroke-opacity:0.1; fill:none" points="
  312.768,404.7 2352.76,404.7 
  "/>
<polyline clip-path="url(#clip3002)" style="stroke:#000000; stroke-width:2; stroke-opacity:0.1; fill:none" points="
  312.768,85.543 2352.76,85.543 
  "/>
<polyline clip-path="url(#clip3000)" style="stroke:#000000; stroke-width:4; stroke-opacity:1; fill:none" points="
  312.768,1400.47 2352.76,1400.47 
  "/>
<polyline clip-path="url(#clip3000)" style="stroke:#000000; stroke-width:4; stroke-opacity:1; fill:none" points="
  312.768,1400.47 312.768,47.2441 
  "/>
<polyline clip-path="url(#clip3000)" style="stroke:#000000; stroke-width:4; stroke-opacity:1; fill:none" points="
  370.503,1400.47 370.503,1380.17 
  "/>
<polyline clip-path="url(#clip3000)" style="stroke:#000000; stroke-width:4; stroke-opacity:1; fill:none" points="
  936.538,1400.47 936.538,1380.17 
  "/>
<polyline clip-path="url(#clip3000)" style="stroke:#000000; stroke-width:4; stroke-opacity:1; fill:none" points="
  1502.57,1400.47 1502.57,1380.17 
  "/>
<polyline clip-path="url(#clip3000)" style="stroke:#000000; stroke-width:4; stroke-opacity:1; fill:none" points="
  2068.61,1400.47 2068.61,1380.17 
  "/>
<polyline clip-path="url(#clip3000)" style="stroke:#000000; stroke-width:4; stroke-opacity:1; fill:none" points="
  312.768,1362.17 343.367,1362.17 
  "/>
<polyline clip-path="url(#clip3000)" style="stroke:#000000; stroke-width:4; stroke-opacity:1; fill:none" points="
  312.768,1043.01 343.367,1043.01 
  "/>
<polyline clip-path="url(#clip3000)" style="stroke:#000000; stroke-width:4; stroke-opacity:1; fill:none" points="
  312.768,723.856 343.367,723.856 
  "/>
<polyline clip-path="url(#clip3000)" style="stroke:#000000; stroke-width:4; stroke-opacity:1; fill:none" points="
  312.768,404.7 343.367,404.7 
  "/>
<polyline clip-path="url(#clip3000)" style="stroke:#000000; stroke-width:4; stroke-opacity:1; fill:none" points="
  312.768,85.543 343.367,85.543 
  "/>
<g clip-path="url(#clip3000)">
<text style="fill:#000000; fill-opacity:1; font-family:Arial,Helvetica Neue,Helvetica,sans-serif; font-size:84px; text-anchor:middle;" transform="rotate(0, 370.503, 1485.67)" x="370.503" y="1485.67">0</text>
</g>
<g clip-path="url(#clip3000)">
<text style="fill:#000000; fill-opacity:1; font-family:Arial,Helvetica Neue,Helvetica,sans-serif; font-size:84px; text-anchor:middle;" transform="rotate(0, 936.538, 1485.67)" x="936.538" y="1485.67">1</text>
</g>
<g clip-path="url(#clip3000)">
<text style="fill:#000000; fill-opacity:1; font-family:Arial,Helvetica Neue,Helvetica,sans-serif; font-size:84px; text-anchor:middle;" transform="rotate(0, 1502.57, 1485.67)" x="1502.57" y="1485.67">2</text>
</g>
<g clip-path="url(#clip3000)">
<text style="fill:#000000; fill-opacity:1; font-family:Arial,Helvetica Neue,Helvetica,sans-serif; font-size:84px; text-anchor:middle;" transform="rotate(0, 2068.61, 1485.67)" x="2068.61" y="1485.67">3</text>
</g>
<g clip-path="url(#clip3000)">
<text style="fill:#000000; fill-opacity:1; font-family:Arial,Helvetica Neue,Helvetica,sans-serif; font-size:84px; text-anchor:end;" transform="rotate(0, 288.768, 1392.67)" x="288.768" y="1392.67">0.0</text>
</g>
<g clip-path="url(#clip3000)">
<text style="fill:#000000; fill-opacity:1; font-family:Arial,Helvetica Neue,Helvetica,sans-serif; font-size:84px; text-anchor:end;" transform="rotate(0, 288.768, 1073.51)" x="288.768" y="1073.51">2.5</text>
</g>
<g clip-path="url(#clip3000)">
<text style="fill:#000000; fill-opacity:1; font-family:Arial,Helvetica Neue,Helvetica,sans-serif; font-size:84px; text-anchor:end;" transform="rotate(0, 288.768, 754.356)" x="288.768" y="754.356">5.0</text>
</g>
<g clip-path="url(#clip3000)">
<text style="fill:#000000; fill-opacity:1; font-family:Arial,Helvetica Neue,Helvetica,sans-serif; font-size:84px; text-anchor:end;" transform="rotate(0, 288.768, 435.2)" x="288.768" y="435.2">7.5</text>
</g>
<g clip-path="url(#clip3000)">
<text style="fill:#000000; fill-opacity:1; font-family:Arial,Helvetica Neue,Helvetica,sans-serif; font-size:84px; text-anchor:end;" transform="rotate(0, 288.768, 116.043)" x="288.768" y="116.043">10.0</text>
</g>
<g clip-path="url(#clip3000)">
<text style="fill:#000000; fill-opacity:1; font-family:Arial,Helvetica Neue,Helvetica,sans-serif; font-size:66px; text-anchor:middle;" transform="rotate(0, 1332.76, 1572.06)" x="1332.76" y="1572.06">time</text>
</g>
<g clip-path="url(#clip3000)">
<text style="fill:#000000; fill-opacity:1; font-family:Arial,Helvetica Neue,Helvetica,sans-serif; font-size:66px; text-anchor:middle;" transform="rotate(-90, 89.2861, 723.856)" x="89.2861" y="723.856">horizontal position</text>
</g>
<polyline clip-path="url(#clip3002)" style="stroke:#e34a33; stroke-width:24; stroke-opacity:1; fill:none" points="
  370.503,1362.17 427.107,1177.16 483.71,1004.39 540.313,857.783 596.917,723.915 653.52,602.783 710.124,494.389 766.727,398.728 823.331,315.801 879.934,245.605 
  936.538,188.139 993.141,143.401 1049.74,111.391 1106.35,92.105 1162.95,85.5432 1219.55,85.543 1276.16,85.543 1332.76,85.543 1389.37,85.543 1445.97,85.543 
  1502.57,85.543 1559.18,85.543 1615.78,85.543 1672.38,85.543 1728.99,85.543 1785.59,85.543 1842.19,85.543 1898.8,85.543 1955.4,85.543 2012,85.543 
  2068.61,85.543 2125.21,85.543 2181.81,85.543 2238.42,85.543 2295.02,85.543 
  "/>
<circle clip-path="url(#clip3002)" style="fill:#000000; stroke:none; fill-opacity:1" cx="370.503" cy="1362.17" r="25"/>
<circle clip-path="url(#clip3002)" style="fill:#e34a33; stroke:none; fill-opacity:1" cx="370.503" cy="1362.17" r="21"/>
<circle clip-path="url(#clip3002)" style="fill:#000000; stroke:none; fill-opacity:1" cx="427.107" cy="1177.16" r="25"/>
<circle clip-path="url(#clip3002)" style="fill:#e34a33; stroke:none; fill-opacity:1" cx="427.107" cy="1177.16" r="21"/>
<circle clip-path="url(#clip3002)" style="fill:#000000; stroke:none; fill-opacity:1" cx="483.71" cy="1004.39" r="25"/>
<circle clip-path="url(#clip3002)" style="fill:#e34a33; stroke:none; fill-opacity:1" cx="483.71" cy="1004.39" r="21"/>
<circle clip-path="url(#clip3002)" style="fill:#000000; stroke:none; fill-opacity:1" cx="540.313" cy="857.783" r="25"/>
<circle clip-path="url(#clip3002)" style="fill:#e34a33; stroke:none; fill-opacity:1" cx="540.313" cy="857.783" r="21"/>
<circle clip-path="url(#clip3002)" style="fill:#000000; stroke:none; fill-opacity:1" cx="596.917" cy="723.915" r="25"/>
<circle clip-path="url(#clip3002)" style="fill:#e34a33; stroke:none; fill-opacity:1" cx="596.917" cy="723.915" r="21"/>
<circle clip-path="url(#clip3002)" style="fill:#000000; stroke:none; fill-opacity:1" cx="653.52" cy="602.783" r="25"/>
<circle clip-path="url(#clip3002)" style="fill:#e34a33; stroke:none; fill-opacity:1" cx="653.52" cy="602.783" r="21"/>
<circle clip-path="url(#clip3002)" style="fill:#000000; stroke:none; fill-opacity:1" cx="710.124" cy="494.389" r="25"/>
<circle clip-path="url(#clip3002)" style="fill:#e34a33; stroke:none; fill-opacity:1" cx="710.124" cy="494.389" r="21"/>
<circle clip-path="url(#clip3002)" style="fill:#000000; stroke:none; fill-opacity:1" cx="766.727" cy="398.728" r="25"/>
<circle clip-path="url(#clip3002)" style="fill:#e34a33; stroke:none; fill-opacity:1" cx="766.727" cy="398.728" r="21"/>
<circle clip-path="url(#clip3002)" style="fill:#000000; stroke:none; fill-opacity:1" cx="823.331" cy="315.801" r="25"/>
<circle clip-path="url(#clip3002)" style="fill:#e34a33; stroke:none; fill-opacity:1" cx="823.331" cy="315.801" r="21"/>
<circle clip-path="url(#clip3002)" style="fill:#000000; stroke:none; fill-opacity:1" cx="879.934" cy="245.605" r="25"/>
<circle clip-path="url(#clip3002)" style="fill:#e34a33; stroke:none; fill-opacity:1" cx="879.934" cy="245.605" r="21"/>
<circle clip-path="url(#clip3002)" style="fill:#000000; stroke:none; fill-opacity:1" cx="936.538" cy="188.139" r="25"/>
<circle clip-path="url(#clip3002)" style="fill:#e34a33; stroke:none; fill-opacity:1" cx="936.538" cy="188.139" r="21"/>
<circle clip-path="url(#clip3002)" style="fill:#000000; stroke:none; fill-opacity:1" cx="993.141" cy="143.401" r="25"/>
<circle clip-path="url(#clip3002)" style="fill:#e34a33; stroke:none; fill-opacity:1" cx="993.141" cy="143.401" r="21"/>
<circle clip-path="url(#clip3002)" style="fill:#000000; stroke:none; fill-opacity:1" cx="1049.74" cy="111.391" r="25"/>
<circle clip-path="url(#clip3002)" style="fill:#e34a33; stroke:none; fill-opacity:1" cx="1049.74" cy="111.391" r="21"/>
<circle clip-path="url(#clip3002)" style="fill:#000000; stroke:none; fill-opacity:1" cx="1106.35" cy="92.105" r="25"/>
<circle clip-path="url(#clip3002)" style="fill:#e34a33; stroke:none; fill-opacity:1" cx="1106.35" cy="92.105" r="21"/>
<circle clip-path="url(#clip3002)" style="fill:#000000; stroke:none; fill-opacity:1" cx="1162.95" cy="85.5432" r="25"/>
<circle clip-path="url(#clip3002)" style="fill:#e34a33; stroke:none; fill-opacity:1" cx="1162.95" cy="85.5432" r="21"/>
<circle clip-path="url(#clip3002)" style="fill:#000000; stroke:none; fill-opacity:1" cx="1219.55" cy="85.543" r="25"/>
<circle clip-path="url(#clip3002)" style="fill:#e34a33; stroke:none; fill-opacity:1" cx="1219.55" cy="85.543" r="21"/>
<circle clip-path="url(#clip3002)" style="fill:#000000; stroke:none; fill-opacity:1" cx="1276.16" cy="85.543" r="25"/>
<circle clip-path="url(#clip3002)" style="fill:#e34a33; stroke:none; fill-opacity:1" cx="1276.16" cy="85.543" r="21"/>
<circle clip-path="url(#clip3002)" style="fill:#000000; stroke:none; fill-opacity:1" cx="1332.76" cy="85.543" r="25"/>
<circle clip-path="url(#clip3002)" style="fill:#e34a33; stroke:none; fill-opacity:1" cx="1332.76" cy="85.543" r="21"/>
<circle clip-path="url(#clip3002)" style="fill:#000000; stroke:none; fill-opacity:1" cx="1389.37" cy="85.543" r="25"/>
<circle clip-path="url(#clip3002)" style="fill:#e34a33; stroke:none; fill-opacity:1" cx="1389.37" cy="85.543" r="21"/>
<circle clip-path="url(#clip3002)" style="fill:#000000; stroke:none; fill-opacity:1" cx="1445.97" cy="85.543" r="25"/>
<circle clip-path="url(#clip3002)" style="fill:#e34a33; stroke:none; fill-opacity:1" cx="1445.97" cy="85.543" r="21"/>
<circle clip-path="url(#clip3002)" style="fill:#000000; stroke:none; fill-opacity:1" cx="1502.57" cy="85.543" r="25"/>
<circle clip-path="url(#clip3002)" style="fill:#e34a33; stroke:none; fill-opacity:1" cx="1502.57" cy="85.543" r="21"/>
<circle clip-path="url(#clip3002)" style="fill:#000000; stroke:none; fill-opacity:1" cx="1559.18" cy="85.543" r="25"/>
<circle clip-path="url(#clip3002)" style="fill:#e34a33; stroke:none; fill-opacity:1" cx="1559.18" cy="85.543" r="21"/>
<circle clip-path="url(#clip3002)" style="fill:#000000; stroke:none; fill-opacity:1" cx="1615.78" cy="85.543" r="25"/>
<circle clip-path="url(#clip3002)" style="fill:#e34a33; stroke:none; fill-opacity:1" cx="1615.78" cy="85.543" r="21"/>
<circle clip-path="url(#clip3002)" style="fill:#000000; stroke:none; fill-opacity:1" cx="1672.38" cy="85.543" r="25"/>
<circle clip-path="url(#clip3002)" style="fill:#e34a33; stroke:none; fill-opacity:1" cx="1672.38" cy="85.543" r="21"/>
<circle clip-path="url(#clip3002)" style="fill:#000000; stroke:none; fill-opacity:1" cx="1728.99" cy="85.543" r="25"/>
<circle clip-path="url(#clip3002)" style="fill:#e34a33; stroke:none; fill-opacity:1" cx="1728.99" cy="85.543" r="21"/>
<circle clip-path="url(#clip3002)" style="fill:#000000; stroke:none; fill-opacity:1" cx="1785.59" cy="85.543" r="25"/>
<circle clip-path="url(#clip3002)" style="fill:#e34a33; stroke:none; fill-opacity:1" cx="1785.59" cy="85.543" r="21"/>
<circle clip-path="url(#clip3002)" style="fill:#000000; stroke:none; fill-opacity:1" cx="1842.19" cy="85.543" r="25"/>
<circle clip-path="url(#clip3002)" style="fill:#e34a33; stroke:none; fill-opacity:1" cx="1842.19" cy="85.543" r="21"/>
<circle clip-path="url(#clip3002)" style="fill:#000000; stroke:none; fill-opacity:1" cx="1898.8" cy="85.543" r="25"/>
<circle clip-path="url(#clip3002)" style="fill:#e34a33; stroke:none; fill-opacity:1" cx="1898.8" cy="85.543" r="21"/>
<circle clip-path="url(#clip3002)" style="fill:#000000; stroke:none; fill-opacity:1" cx="1955.4" cy="85.543" r="25"/>
<circle clip-path="url(#clip3002)" style="fill:#e34a33; stroke:none; fill-opacity:1" cx="1955.4" cy="85.543" r="21"/>
<circle clip-path="url(#clip3002)" style="fill:#000000; stroke:none; fill-opacity:1" cx="2012" cy="85.543" r="25"/>
<circle clip-path="url(#clip3002)" style="fill:#e34a33; stroke:none; fill-opacity:1" cx="2012" cy="85.543" r="21"/>
<circle clip-path="url(#clip3002)" style="fill:#000000; stroke:none; fill-opacity:1" cx="2068.61" cy="85.543" r="25"/>
<circle clip-path="url(#clip3002)" style="fill:#e34a33; stroke:none; fill-opacity:1" cx="2068.61" cy="85.543" r="21"/>
<circle clip-path="url(#clip3002)" style="fill:#000000; stroke:none; fill-opacity:1" cx="2125.21" cy="85.543" r="25"/>
<circle clip-path="url(#clip3002)" style="fill:#e34a33; stroke:none; fill-opacity:1" cx="2125.21" cy="85.543" r="21"/>
<circle clip-path="url(#clip3002)" style="fill:#000000; stroke:none; fill-opacity:1" cx="2181.81" cy="85.543" r="25"/>
<circle clip-path="url(#clip3002)" style="fill:#e34a33; stroke:none; fill-opacity:1" cx="2181.81" cy="85.543" r="21"/>
<circle clip-path="url(#clip3002)" style="fill:#000000; stroke:none; fill-opacity:1" cx="2238.42" cy="85.543" r="25"/>
<circle clip-path="url(#clip3002)" style="fill:#e34a33; stroke:none; fill-opacity:1" cx="2238.42" cy="85.543" r="21"/>
<circle clip-path="url(#clip3002)" style="fill:#000000; stroke:none; fill-opacity:1" cx="2295.02" cy="85.543" r="25"/>
<circle clip-path="url(#clip3002)" style="fill:#e34a33; stroke:none; fill-opacity:1" cx="2295.02" cy="85.543" r="21"/>
<polyline clip-path="url(#clip3002)" style="stroke:#fee8c8; stroke-width:4; stroke-opacity:1; fill:none" points="
  370.503,1362.17 427.107,1183.24 483.71,1015.91 540.313,872.331 596.917,740.825 653.52,621.373 710.124,513.954 766.727,418.55 823.331,335.142 879.934,263.711 
  936.538,204.238 993.141,156.703 1049.74,121.089 1106.35,97.3755 1162.95,85.5447 1219.55,85.5429 1276.16,85.543 1332.76,85.543 1389.37,85.543 1445.97,85.543 
  1502.57,85.543 1559.18,85.543 1615.78,85.543 1672.38,85.543 1728.99,85.543 1785.59,85.543 1842.19,85.543 1898.8,85.543 1955.4,85.543 2012,85.543 
  2068.61,85.543 2125.21,85.543 2181.81,85.543 2238.42,85.543 2295.02,85.543 
  "/>
<circle clip-path="url(#clip3002)" style="fill:#000000; stroke:none; fill-opacity:1" cx="370.503" cy="1362.17" r="25"/>
<circle clip-path="url(#clip3002)" style="fill:#fee8c8; stroke:none; fill-opacity:1" cx="370.503" cy="1362.17" r="21"/>
<circle clip-path="url(#clip3002)" style="fill:#000000; stroke:none; fill-opacity:1" cx="427.107" cy="1183.24" r="25"/>
<circle clip-path="url(#clip3002)" style="fill:#fee8c8; stroke:none; fill-opacity:1" cx="427.107" cy="1183.24" r="21"/>
<circle clip-path="url(#clip3002)" style="fill:#000000; stroke:none; fill-opacity:1" cx="483.71" cy="1015.91" r="25"/>
<circle clip-path="url(#clip3002)" style="fill:#fee8c8; stroke:none; fill-opacity:1" cx="483.71" cy="1015.91" r="21"/>
<circle clip-path="url(#clip3002)" style="fill:#000000; stroke:none; fill-opacity:1" cx="540.313" cy="872.331" r="25"/>
<circle clip-path="url(#clip3002)" style="fill:#fee8c8; stroke:none; fill-opacity:1" cx="540.313" cy="872.331" r="21"/>
<circle clip-path="url(#clip3002)" style="fill:#000000; stroke:none; fill-opacity:1" cx="596.917" cy="740.825" r="25"/>
<circle clip-path="url(#clip3002)" style="fill:#fee8c8; stroke:none; fill-opacity:1" cx="596.917" cy="740.825" r="21"/>
<circle clip-path="url(#clip3002)" style="fill:#000000; stroke:none; fill-opacity:1" cx="653.52" cy="621.373" r="25"/>
<circle clip-path="url(#clip3002)" style="fill:#fee8c8; stroke:none; fill-opacity:1" cx="653.52" cy="621.373" r="21"/>
<circle clip-path="url(#clip3002)" style="fill:#000000; stroke:none; fill-opacity:1" cx="710.124" cy="513.954" r="25"/>
<circle clip-path="url(#clip3002)" style="fill:#fee8c8; stroke:none; fill-opacity:1" cx="710.124" cy="513.954" r="21"/>
<circle clip-path="url(#clip3002)" style="fill:#000000; stroke:none; fill-opacity:1" cx="766.727" cy="418.55" r="25"/>
<circle clip-path="url(#clip3002)" style="fill:#fee8c8; stroke:none; fill-opacity:1" cx="766.727" cy="418.55" r="21"/>
<circle clip-path="url(#clip3002)" style="fill:#000000; stroke:none; fill-opacity:1" cx="823.331" cy="335.142" r="25"/>
<circle clip-path="url(#clip3002)" style="fill:#fee8c8; stroke:none; fill-opacity:1" cx="823.331" cy="335.142" r="21"/>
<circle clip-path="url(#clip3002)" style="fill:#000000; stroke:none; fill-opacity:1" cx="879.934" cy="263.711" r="25"/>
<circle clip-path="url(#clip3002)" style="fill:#fee8c8; stroke:none; fill-opacity:1" cx="879.934" cy="263.711" r="21"/>
<circle clip-path="url(#clip3002)" style="fill:#000000; stroke:none; fill-opacity:1" cx="936.538" cy="204.238" r="25"/>
<circle clip-path="url(#clip3002)" style="fill:#fee8c8; stroke:none; fill-opacity:1" cx="936.538" cy="204.238" r="21"/>
<circle clip-path="url(#clip3002)" style="fill:#000000; stroke:none; fill-opacity:1" cx="993.141" cy="156.703" r="25"/>
<circle clip-path="url(#clip3002)" style="fill:#fee8c8; stroke:none; fill-opacity:1" cx="993.141" cy="156.703" r="21"/>
<circle clip-path="url(#clip3002)" style="fill:#000000; stroke:none; fill-opacity:1" cx="1049.74" cy="121.089" r="25"/>
<circle clip-path="url(#clip3002)" style="fill:#fee8c8; stroke:none; fill-opacity:1" cx="1049.74" cy="121.089" r="21"/>
<circle clip-path="url(#clip3002)" style="fill:#000000; stroke:none; fill-opacity:1" cx="1106.35" cy="97.3755" r="25"/>
<circle clip-path="url(#clip3002)" style="fill:#fee8c8; stroke:none; fill-opacity:1" cx="1106.35" cy="97.3755" r="21"/>
<circle clip-path="url(#clip3002)" style="fill:#000000; stroke:none; fill-opacity:1" cx="1162.95" cy="85.5447" r="25"/>
<circle clip-path="url(#clip3002)" style="fill:#fee8c8; stroke:none; fill-opacity:1" cx="1162.95" cy="85.5447" r="21"/>
<circle clip-path="url(#clip3002)" style="fill:#000000; stroke:none; fill-opacity:1" cx="1219.55" cy="85.5429" r="25"/>
<circle clip-path="url(#clip3002)" style="fill:#fee8c8; stroke:none; fill-opacity:1" cx="1219.55" cy="85.5429" r="21"/>
<circle clip-path="url(#clip3002)" style="fill:#000000; stroke:none; fill-opacity:1" cx="1276.16" cy="85.543" r="25"/>
<circle clip-path="url(#clip3002)" style="fill:#fee8c8; stroke:none; fill-opacity:1" cx="1276.16" cy="85.543" r="21"/>
<circle clip-path="url(#clip3002)" style="fill:#000000; stroke:none; fill-opacity:1" cx="1332.76" cy="85.543" r="25"/>
<circle clip-path="url(#clip3002)" style="fill:#fee8c8; stroke:none; fill-opacity:1" cx="1332.76" cy="85.543" r="21"/>
<circle clip-path="url(#clip3002)" style="fill:#000000; stroke:none; fill-opacity:1" cx="1389.37" cy="85.543" r="25"/>
<circle clip-path="url(#clip3002)" style="fill:#fee8c8; stroke:none; fill-opacity:1" cx="1389.37" cy="85.543" r="21"/>
<circle clip-path="url(#clip3002)" style="fill:#000000; stroke:none; fill-opacity:1" cx="1445.97" cy="85.543" r="25"/>
<circle clip-path="url(#clip3002)" style="fill:#fee8c8; stroke:none; fill-opacity:1" cx="1445.97" cy="85.543" r="21"/>
<circle clip-path="url(#clip3002)" style="fill:#000000; stroke:none; fill-opacity:1" cx="1502.57" cy="85.543" r="25"/>
<circle clip-path="url(#clip3002)" style="fill:#fee8c8; stroke:none; fill-opacity:1" cx="1502.57" cy="85.543" r="21"/>
<circle clip-path="url(#clip3002)" style="fill:#000000; stroke:none; fill-opacity:1" cx="1559.18" cy="85.543" r="25"/>
<circle clip-path="url(#clip3002)" style="fill:#fee8c8; stroke:none; fill-opacity:1" cx="1559.18" cy="85.543" r="21"/>
<circle clip-path="url(#clip3002)" style="fill:#000000; stroke:none; fill-opacity:1" cx="1615.78" cy="85.543" r="25"/>
<circle clip-path="url(#clip3002)" style="fill:#fee8c8; stroke:none; fill-opacity:1" cx="1615.78" cy="85.543" r="21"/>
<circle clip-path="url(#clip3002)" style="fill:#000000; stroke:none; fill-opacity:1" cx="1672.38" cy="85.543" r="25"/>
<circle clip-path="url(#clip3002)" style="fill:#fee8c8; stroke:none; fill-opacity:1" cx="1672.38" cy="85.543" r="21"/>
<circle clip-path="url(#clip3002)" style="fill:#000000; stroke:none; fill-opacity:1" cx="1728.99" cy="85.543" r="25"/>
<circle clip-path="url(#clip3002)" style="fill:#fee8c8; stroke:none; fill-opacity:1" cx="1728.99" cy="85.543" r="21"/>
<circle clip-path="url(#clip3002)" style="fill:#000000; stroke:none; fill-opacity:1" cx="1785.59" cy="85.543" r="25"/>
<circle clip-path="url(#clip3002)" style="fill:#fee8c8; stroke:none; fill-opacity:1" cx="1785.59" cy="85.543" r="21"/>
<circle clip-path="url(#clip3002)" style="fill:#000000; stroke:none; fill-opacity:1" cx="1842.19" cy="85.543" r="25"/>
<circle clip-path="url(#clip3002)" style="fill:#fee8c8; stroke:none; fill-opacity:1" cx="1842.19" cy="85.543" r="21"/>
<circle clip-path="url(#clip3002)" style="fill:#000000; stroke:none; fill-opacity:1" cx="1898.8" cy="85.543" r="25"/>
<circle clip-path="url(#clip3002)" style="fill:#fee8c8; stroke:none; fill-opacity:1" cx="1898.8" cy="85.543" r="21"/>
<circle clip-path="url(#clip3002)" style="fill:#000000; stroke:none; fill-opacity:1" cx="1955.4" cy="85.543" r="25"/>
<circle clip-path="url(#clip3002)" style="fill:#fee8c8; stroke:none; fill-opacity:1" cx="1955.4" cy="85.543" r="21"/>
<circle clip-path="url(#clip3002)" style="fill:#000000; stroke:none; fill-opacity:1" cx="2012" cy="85.543" r="25"/>
<circle clip-path="url(#clip3002)" style="fill:#fee8c8; stroke:none; fill-opacity:1" cx="2012" cy="85.543" r="21"/>
<circle clip-path="url(#clip3002)" style="fill:#000000; stroke:none; fill-opacity:1" cx="2068.61" cy="85.543" r="25"/>
<circle clip-path="url(#clip3002)" style="fill:#fee8c8; stroke:none; fill-opacity:1" cx="2068.61" cy="85.543" r="21"/>
<circle clip-path="url(#clip3002)" style="fill:#000000; stroke:none; fill-opacity:1" cx="2125.21" cy="85.543" r="25"/>
<circle clip-path="url(#clip3002)" style="fill:#fee8c8; stroke:none; fill-opacity:1" cx="2125.21" cy="85.543" r="21"/>
<circle clip-path="url(#clip3002)" style="fill:#000000; stroke:none; fill-opacity:1" cx="2181.81" cy="85.543" r="25"/>
<circle clip-path="url(#clip3002)" style="fill:#fee8c8; stroke:none; fill-opacity:1" cx="2181.81" cy="85.543" r="21"/>
<circle clip-path="url(#clip3002)" style="fill:#000000; stroke:none; fill-opacity:1" cx="2238.42" cy="85.543" r="25"/>
<circle clip-path="url(#clip3002)" style="fill:#fee8c8; stroke:none; fill-opacity:1" cx="2238.42" cy="85.543" r="21"/>
<circle clip-path="url(#clip3002)" style="fill:#000000; stroke:none; fill-opacity:1" cx="2295.02" cy="85.543" r="25"/>
<circle clip-path="url(#clip3002)" style="fill:#fee8c8; stroke:none; fill-opacity:1" cx="2295.02" cy="85.543" r="21"/>
<polygon clip-path="url(#clip3000)" points="
1642.92,402.924 2280.76,402.924 2280.76,85.4041 1642.92,85.4041 
  " fill="#ffffff" fill-rule="evenodd" fill-opacity="1"/>
<polyline clip-path="url(#clip3000)" style="stroke:#000000; stroke-width:4; stroke-opacity:1; fill:none" points="
  1642.92,402.924 2280.76,402.924 2280.76,85.4041 1642.92,85.4041 1642.92,402.924 
  "/>
<polyline clip-path="url(#clip3000)" style="stroke:#e34a33; stroke-width:24; stroke-opacity:1; fill:none" points="
  1666.92,191.244 1810.92,191.244 
  "/>
<circle clip-path="url(#clip3000)" style="fill:#000000; stroke:none; fill-opacity:1" cx="1750.92" cy="191.244" r="25"/>
<circle clip-path="url(#clip3000)" style="fill:#e34a33; stroke:none; fill-opacity:1" cx="1750.92" cy="191.244" r="21"/>
<g clip-path="url(#clip3000)">
<text style="fill:#000000; fill-opacity:1; font-family:Arial,Helvetica Neue,Helvetica,sans-serif; font-size:84px; text-anchor:start;" transform="rotate(0, 1834.92, 221.744)" x="1834.92" y="221.744">Indirect</text>
</g>
<polyline clip-path="url(#clip3000)" style="stroke:#fee8c8; stroke-width:4; stroke-opacity:1; fill:none" points="
  1666.92,297.084 1810.92,297.084 
  "/>
<circle clip-path="url(#clip3000)" style="fill:#000000; stroke:none; fill-opacity:1" cx="1750.92" cy="297.084" r="25"/>
<circle clip-path="url(#clip3000)" style="fill:#fee8c8; stroke:none; fill-opacity:1" cx="1750.92" cy="297.084" r="21"/>
<g clip-path="url(#clip3000)">
<text style="fill:#000000; fill-opacity:1; font-family:Arial,Helvetica Neue,Helvetica,sans-serif; font-size:84px; text-anchor:start;" transform="rotate(0, 1834.92, 327.584)" x="1834.92" y="327.584">Semidirect</text>
</g>
</svg>
