<?xml version="1.0" encoding="utf-8"?>
<svg xmlns="http://www.w3.org/2000/svg" xmlns:xlink="http://www.w3.org/1999/xlink" width="600" height="400" viewBox="0 0 2400 1600">
<defs>
  <clipPath id="clip3800">
    <rect x="0" y="0" width="2400" height="1600"/>
  </clipPath>
</defs>
<polygon clip-path="url(#clip3800)" points="
0,1600 2400,1600 2400,0 0,0 
  " fill="#ffffff" fill-rule="evenodd" fill-opacity="1"/>
<defs>
  <clipPath id="clip3801">
    <rect x="480" y="0" width="1681" height="1600"/>
  </clipPath>
</defs>
<polygon clip-path="url(#clip3800)" points="
312.768,1400.47 2352.76,1400.47 2352.76,47.2441 312.768,47.2441 
  " fill="#ffffff" fill-rule="evenodd" fill-opacity="1"/>
<defs>
  <clipPath id="clip3802">
    <rect x="312" y="47" width="2041" height="1354"/>
  </clipPath>
</defs>
<polyline clip-path="url(#clip3802)" style="stroke:#000000; stroke-width:2; stroke-opacity:0.1; fill:none" points="
  370.503,1400.47 370.503,47.2441 
  "/>
<polyline clip-path="url(#clip3802)" style="stroke:#000000; stroke-width:2; stroke-opacity:0.1; fill:none" points="
  936.538,1400.47 936.538,47.2441 
  "/>
<polyline clip-path="url(#clip3802)" style="stroke:#000000; stroke-width:2; stroke-opacity:0.1; fill:none" points="
  1502.57,1400.47 1502.57,47.2441 
  "/>
<polyline clip-path="url(#clip3802)" style="stroke:#000000; stroke-width:2; stroke-opacity:0.1; fill:none" points="
  2068.61,1400.47 2068.61,47.2441 
  "/>
<polyline clip-path="url(#clip3802)" style="stroke:#000000; stroke-width:2; stroke-opacity:0.1; fill:none" points="
  312.768,1362.17 2352.76,1362.17 
  "/>
<polyline clip-path="url(#clip3802)" style="stroke:#000000; stroke-width:2; stroke-opacity:0.1; fill:none" points="
  312.768,1043.01 2352.76,1043.01 
  "/>
<polyline clip-path="url(#clip3802)" style="stroke:#000000; stroke-width:2; stroke-opacity:0.1; fill:none" points="
  312.768,723.856 2352.76,723.856 
  "/>
<polyline clip-path="url(#clip3802)" style="stroke:#000000; stroke-width:2; stroke-opacity:0.1; fill:none" points="
  312.768,404.7 2352.76,404.7 
  "/>
<polyline clip-path="url(#clip3802)" style="stroke:#000000; stroke-width:2; stroke-opacity:0.1; fill:none" points="
  312.768,85.5429 2352.76,85.5429 
  "/>
<polyline clip-path="url(#clip3800)" style="stroke:#000000; stroke-width:4; stroke-opacity:1; fill:none" points="
  312.768,1400.47 2352.76,1400.47 
  "/>
<polyline clip-path="url(#clip3800)" style="stroke:#000000; stroke-width:4; stroke-opacity:1; fill:none" points="
  312.768,1400.47 312.768,47.2441 
  "/>
<polyline clip-path="url(#clip3800)" style="stroke:#000000; stroke-width:4; stroke-opacity:1; fill:none" points="
  370.503,1400.47 370.503,1380.17 
  "/>
<polyline clip-path="url(#clip3800)" style="stroke:#000000; stroke-width:4; stroke-opacity:1; fill:none" points="
  936.538,1400.47 936.538,1380.17 
  "/>
<polyline clip-path="url(#clip3800)" style="stroke:#000000; stroke-width:4; stroke-opacity:1; fill:none" points="
  1502.57,1400.47 1502.57,1380.17 
  "/>
<polyline clip-path="url(#clip3800)" style="stroke:#000000; stroke-width:4; stroke-opacity:1; fill:none" points="
  2068.61,1400.47 2068.61,1380.17 
  "/>
<polyline clip-path="url(#clip3800)" style="stroke:#000000; stroke-width:4; stroke-opacity:1; fill:none" points="
  312.768,1362.17 343.367,1362.17 
  "/>
<polyline clip-path="url(#clip3800)" style="stroke:#000000; stroke-width:4; stroke-opacity:1; fill:none" points="
  312.768,1043.01 343.367,1043.01 
  "/>
<polyline clip-path="url(#clip3800)" style="stroke:#000000; stroke-width:4; stroke-opacity:1; fill:none" points="
  312.768,723.856 343.367,723.856 
  "/>
<polyline clip-path="url(#clip3800)" style="stroke:#000000; stroke-width:4; stroke-opacity:1; fill:none" points="
  312.768,404.7 343.367,404.7 
  "/>
<polyline clip-path="url(#clip3800)" style="stroke:#000000; stroke-width:4; stroke-opacity:1; fill:none" points="
  312.768,85.5429 343.367,85.5429 
  "/>
<g clip-path="url(#clip3800)">
<text style="fill:#000000; fill-opacity:1; font-family:Arial,Helvetica Neue,Helvetica,sans-serif; font-size:84px; text-anchor:middle;" transform="rotate(0, 370.503, 1485.67)" x="370.503" y="1485.67">0</text>
</g>
<g clip-path="url(#clip3800)">
<text style="fill:#000000; fill-opacity:1; font-family:Arial,Helvetica Neue,Helvetica,sans-serif; font-size:84px; text-anchor:middle;" transform="rotate(0, 936.538, 1485.67)" x="936.538" y="1485.67">1</text>
</g>
<g clip-path="url(#clip3800)">
<text style="fill:#000000; fill-opacity:1; font-family:Arial,Helvetica Neue,Helvetica,sans-serif; font-size:84px; text-anchor:middle;" transform="rotate(0, 1502.57, 1485.67)" x="1502.57" y="1485.67">2</text>
</g>
<g clip-path="url(#clip3800)">
<text style="fill:#000000; fill-opacity:1; font-family:Arial,Helvetica Neue,Helvetica,sans-serif; font-size:84px; text-anchor:middle;" transform="rotate(0, 2068.61, 1485.67)" x="2068.61" y="1485.67">3</text>
</g>
<g clip-path="url(#clip3800)">
<text style="fill:#000000; fill-opacity:1; font-family:Arial,Helvetica Neue,Helvetica,sans-serif; font-size:84px; text-anchor:end;" transform="rotate(0, 288.768, 1392.67)" x="288.768" y="1392.67">0.00</text>
</g>
<g clip-path="url(#clip3800)">
<text style="fill:#000000; fill-opacity:1; font-family:Arial,Helvetica Neue,Helvetica,sans-serif; font-size:84px; text-anchor:end;" transform="rotate(0, 288.768, 1073.51)" x="288.768" y="1073.51">0.05</text>
</g>
<g clip-path="url(#clip3800)">
<text style="fill:#000000; fill-opacity:1; font-family:Arial,Helvetica Neue,Helvetica,sans-serif; font-size:84px; text-anchor:end;" transform="rotate(0, 288.768, 754.356)" x="288.768" y="754.356">0.10</text>
</g>
<g clip-path="url(#clip3800)">
<text style="fill:#000000; fill-opacity:1; font-family:Arial,Helvetica Neue,Helvetica,sans-serif; font-size:84px; text-anchor:end;" transform="rotate(0, 288.768, 435.2)" x="288.768" y="435.2">0.15</text>
</g>
<g clip-path="url(#clip3800)">
<text style="fill:#000000; fill-opacity:1; font-family:Arial,Helvetica Neue,Helvetica,sans-serif; font-size:84px; text-anchor:end;" transform="rotate(0, 288.768, 116.043)" x="288.768" y="116.043">0.20</text>
</g>
<g clip-path="url(#clip3800)">
<text style="fill:#000000; fill-opacity:1; font-family:Arial,Helvetica Neue,Helvetica,sans-serif; font-size:66px; text-anchor:middle;" transform="rotate(0, 1332.76, 1572.06)" x="1332.76" y="1572.06">time</text>
</g>
<g clip-path="url(#clip3800)">
<text style="fill:#000000; fill-opacity:1; font-family:Arial,Helvetica Neue,Helvetica,sans-serif; font-size:66px; text-anchor:middle;" transform="rotate(-90, 89.2861, 723.856)" x="89.2861" y="723.856">vertical position</text>
</g>
<polyline clip-path="url(#clip3802)" style="stroke:#e34a33; stroke-width:24; stroke-opacity:1; fill:none" points="
  370.503,85.5429 427.107,711.589 483.71,1362.17 540.313,1362.17 596.917,1362.17 653.52,1362.17 710.124,1362.17 766.727,1362.17 823.331,1362.17 879.934,1362.17 
  936.538,1362.16 993.141,1362.17 1049.74,1362.17 1106.35,1362.17 1162.95,1362.17 1219.55,1362.17 1276.16,1362.17 1332.76,1362.17 1389.37,1362.17 1445.97,1362.17 
  1502.57,1362.17 1559.18,1362.17 1615.78,1362.17 1672.38,1362.17 1728.99,1362.17 1785.59,1362.17 1842.19,1362.17 1898.8,1362.17 1955.4,1362.17 2012,1362.17 
  2068.61,1362.17 2125.21,1362.17 2181.81,1362.17 2238.42,1362.17 2295.02,1362.17 
  "/>
<circle clip-path="url(#clip3802)" style="fill:#000000; stroke:none; fill-opacity:1" cx="370.503" cy="85.5429" r="25"/>
<circle clip-path="url(#clip3802)" style="fill:#e34a33; stroke:none; fill-opacity:1" cx="370.503" cy="85.5429" r="21"/>
<circle clip-path="url(#clip3802)" style="fill:#000000; stroke:none; fill-opacity:1" cx="427.107" cy="711.589" r="25"/>
<circle clip-path="url(#clip3802)" style="fill:#e34a33; stroke:none; fill-opacity:1" cx="427.107" cy="711.589" r="21"/>
<circle clip-path="url(#clip3802)" style="fill:#000000; stroke:none; fill-opacity:1" cx="483.71" cy="1362.17" r="25"/>
<circle clip-path="url(#clip3802)" style="fill:#e34a33; stroke:none; fill-opacity:1" cx="483.71" cy="1362.17" r="21"/>
<circle clip-path="url(#clip3802)" style="fill:#000000; stroke:none; fill-opacity:1" cx="540.313" cy="1362.17" r="25"/>
<circle clip-path="url(#clip3802)" style="fill:#e34a33; stroke:none; fill-opacity:1" cx="540.313" cy="1362.17" r="21"/>
<circle clip-path="url(#clip3802)" style="fill:#000000; stroke:none; fill-opacity:1" cx="596.917" cy="1362.17" r="25"/>
<circle clip-path="url(#clip3802)" style="fill:#e34a33; stroke:none; fill-opacity:1" cx="596.917" cy="1362.17" r="21"/>
<circle clip-path="url(#clip3802)" style="fill:#000000; stroke:none; fill-opacity:1" cx="653.52" cy="1362.17" r="25"/>
<circle clip-path="url(#clip3802)" style="fill:#e34a33; stroke:none; fill-opacity:1" cx="653.52" cy="1362.17" r="21"/>
<circle clip-path="url(#clip3802)" style="fill:#000000; stroke:none; fill-opacity:1" cx="710.124" cy="1362.17" r="25"/>
<circle clip-path="url(#clip3802)" style="fill:#e34a33; stroke:none; fill-opacity:1" cx="710.124" cy="1362.17" r="21"/>
<circle clip-path="url(#clip3802)" style="fill:#000000; stroke:none; fill-opacity:1" cx="766.727" cy="1362.17" r="25"/>
<circle clip-path="url(#clip3802)" style="fill:#e34a33; stroke:none; fill-opacity:1" cx="766.727" cy="1362.17" r="21"/>
<circle clip-path="url(#clip3802)" style="fill:#000000; stroke:none; fill-opacity:1" cx="823.331" cy="1362.17" r="25"/>
<circle clip-path="url(#clip3802)" style="fill:#e34a33; stroke:none; fill-opacity:1" cx="823.331" cy="1362.17" r="21"/>
<circle clip-path="url(#clip3802)" style="fill:#000000; stroke:none; fill-opacity:1" cx="879.934" cy="1362.17" r="25"/>
<circle clip-path="url(#clip3802)" style="fill:#e34a33; stroke:none; fill-opacity:1" cx="879.934" cy="1362.17" r="21"/>
<circle clip-path="url(#clip3802)" style="fill:#000000; stroke:none; fill-opacity:1" cx="936.538" cy="1362.16" r="25"/>
<circle clip-path="url(#clip3802)" style="fill:#e34a33; stroke:none; fill-opacity:1" cx="936.538" cy="1362.16" r="21"/>
<circle clip-path="url(#clip3802)" style="fill:#000000; stroke:none; fill-opacity:1" cx="993.141" cy="1362.17" r="25"/>
<circle clip-path="url(#clip3802)" style="fill:#e34a33; stroke:none; fill-opacity:1" cx="993.141" cy="1362.17" r="21"/>
<circle clip-path="url(#clip3802)" style="fill:#000000; stroke:none; fill-opacity:1" cx="1049.74" cy="1362.17" r="25"/>
<circle clip-path="url(#clip3802)" style="fill:#e34a33; stroke:none; fill-opacity:1" cx="1049.74" cy="1362.17" r="21"/>
<circle clip-path="url(#clip3802)" style="fill:#000000; stroke:none; fill-opacity:1" cx="1106.35" cy="1362.17" r="25"/>
<circle clip-path="url(#clip3802)" style="fill:#e34a33; stroke:none; fill-opacity:1" cx="1106.35" cy="1362.17" r="21"/>
<circle clip-path="url(#clip3802)" style="fill:#000000; stroke:none; fill-opacity:1" cx="1162.95" cy="1362.17" r="25"/>
<circle clip-path="url(#clip3802)" style="fill:#e34a33; stroke:none; fill-opacity:1" cx="1162.95" cy="1362.17" r="21"/>
<circle clip-path="url(#clip3802)" style="fill:#000000; stroke:none; fill-opacity:1" cx="1219.55" cy="1362.17" r="25"/>
<circle clip-path="url(#clip3802)" style="fill:#e34a33; stroke:none; fill-opacity:1" cx="1219.55" cy="1362.17" r="21"/>
<circle clip-path="url(#clip3802)" style="fill:#000000; stroke:none; fill-opacity:1" cx="1276.16" cy="1362.17" r="25"/>
<circle clip-path="url(#clip3802)" style="fill:#e34a33; stroke:none; fill-opacity:1" cx="1276.16" cy="1362.17" r="21"/>
<circle clip-path="url(#clip3802)" style="fill:#000000; stroke:none; fill-opacity:1" cx="1332.76" cy="1362.17" r="25"/>
<circle clip-path="url(#clip3802)" style="fill:#e34a33; stroke:none; fill-opacity:1" cx="1332.76" cy="1362.17" r="21"/>
<circle clip-path="url(#clip3802)" style="fill:#000000; stroke:none; fill-opacity:1" cx="1389.37" cy="1362.17" r="25"/>
<circle clip-path="url(#clip3802)" style="fill:#e34a33; stroke:none; fill-opacity:1" cx="1389.37" cy="1362.17" r="21"/>
<circle clip-path="url(#clip3802)" style="fill:#000000; stroke:none; fill-opacity:1" cx="1445.97" cy="1362.17" r="25"/>
<circle clip-path="url(#clip3802)" style="fill:#e34a33; stroke:none; fill-opacity:1" cx="1445.97" cy="1362.17" r="21"/>
<circle clip-path="url(#clip3802)" style="fill:#000000; stroke:none; fill-opacity:1" cx="1502.57" cy="1362.17" r="25"/>
<circle clip-path="url(#clip3802)" style="fill:#e34a33; stroke:none; fill-opacity:1" cx="1502.57" cy="1362.17" r="21"/>
<circle clip-path="url(#clip3802)" style="fill:#000000; stroke:none; fill-opacity:1" cx="1559.18" cy="1362.17" r="25"/>
<circle clip-path="url(#clip3802)" style="fill:#e34a33; stroke:none; fill-opacity:1" cx="1559.18" cy="1362.17" r="21"/>
<circle clip-path="url(#clip3802)" style="fill:#000000; stroke:none; fill-opacity:1" cx="1615.78" cy="1362.17" r="25"/>
<circle clip-path="url(#clip3802)" style="fill:#e34a33; stroke:none; fill-opacity:1" cx="1615.78" cy="1362.17" r="21"/>
<circle clip-path="url(#clip3802)" style="fill:#000000; stroke:none; fill-opacity:1" cx="1672.38" cy="1362.17" r="25"/>
<circle clip-path="url(#clip3802)" style="fill:#e34a33; stroke:none; fill-opacity:1" cx="1672.38" cy="1362.17" r="21"/>
<circle clip-path="url(#clip3802)" style="fill:#000000; stroke:none; fill-opacity:1" cx="1728.99" cy="1362.17" r="25"/>
<circle clip-path="url(#clip3802)" style="fill:#e34a33; stroke:none; fill-opacity:1" cx="1728.99" cy="1362.17" r="21"/>
<circle clip-path="url(#clip3802)" style="fill:#000000; stroke:none; fill-opacity:1" cx="1785.59" cy="1362.17" r="25"/>
<circle clip-path="url(#clip3802)" style="fill:#e34a33; stroke:none; fill-opacity:1" cx="1785.59" cy="1362.17" r="21"/>
<circle clip-path="url(#clip3802)" style="fill:#000000; stroke:none; fill-opacity:1" cx="1842.19" cy="1362.17" r="25"/>
<circle clip-path="url(#clip3802)" style="fill:#e34a33; stroke:none; fill-opacity:1" cx="1842.19" cy="1362.17" r="21"/>
<circle clip-path="url(#clip3802)" style="fill:#000000; stroke:none; fill-opacity:1" cx="1898.8" cy="1362.17" r="25"/>
<circle clip-path="url(#clip3802)" style="fill:#e34a33; stroke:none; fill-opacity:1" cx="1898.8" cy="1362.17" r="21"/>
<circle clip-path="url(#clip3802)" style="fill:#000000; stroke:none; fill-opacity:1" cx="1955.4" cy="1362.17" r="25"/>
<circle clip-path="url(#clip3802)" style="fill:#e34a33; stroke:none; fill-opacity:1" cx="1955.4" cy="1362.17" r="21"/>
<circle clip-path="url(#clip3802)" style="fill:#000000; stroke:none; fill-opacity:1" cx="2012" cy="1362.17" r="25"/>
<circle clip-path="url(#clip3802)" style="fill:#e34a33; stroke:none; fill-opacity:1" cx="2012" cy="1362.17" r="21"/>
<circle clip-path="url(#clip3802)" style="fill:#000000; stroke:none; fill-opacity:1" cx="2068.61" cy="1362.17" r="25"/>
<circle clip-path="url(#clip3802)" style="fill:#e34a33; stroke:none; fill-opacity:1" cx="2068.61" cy="1362.17" r="21"/>
<circle clip-path="url(#clip3802)" style="fill:#000000; stroke:none; fill-opacity:1" cx="2125.21" cy="1362.17" r="25"/>
<circle clip-path="url(#clip3802)" style="fill:#e34a33; stroke:none; fill-opacity:1" cx="2125.21" cy="1362.17" r="21"/>
<circle clip-path="url(#clip3802)" style="fill:#000000; stroke:none; fill-opacity:1" cx="2181.81" cy="1362.17" r="25"/>
<circle clip-path="url(#clip3802)" style="fill:#e34a33; stroke:none; fill-opacity:1" cx="2181.81" cy="1362.17" r="21"/>
<circle clip-path="url(#clip3802)" style="fill:#000000; stroke:none; fill-opacity:1" cx="2238.42" cy="1362.17" r="25"/>
<circle clip-path="url(#clip3802)" style="fill:#e34a33; stroke:none; fill-opacity:1" cx="2238.42" cy="1362.17" r="21"/>
<circle clip-path="url(#clip3802)" style="fill:#000000; stroke:none; fill-opacity:1" cx="2295.02" cy="1362.17" r="25"/>
<circle clip-path="url(#clip3802)" style="fill:#e34a33; stroke:none; fill-opacity:1" cx="2295.02" cy="1362.17" r="21"/>
<polyline clip-path="url(#clip3802)" style="stroke:#fee8c8; stroke-width:4; stroke-opacity:1; fill:none" points="
  370.503,85.5429 427.107,709.081 483.71,1362.17 540.313,1362.17 596.917,1362.17 653.52,1362.17 710.124,1362.17 766.727,1362.17 823.331,1362.17 879.934,1362.17 
  936.538,1362.17 993.141,1362.17 1049.74,1362.17 1106.35,1362.17 1162.95,1362.17 1219.55,1362.17 1276.16,1362.17 1332.76,1362.17 1389.37,1362.17 1445.97,1362.17 
  1502.57,1362.17 1559.18,1362.17 1615.78,1362.17 1672.38,1362.17 1728.99,1362.17 1785.59,1362.17 1842.19,1362.17 1898.8,1362.17 1955.4,1362.17 2012,1362.17 
  2068.61,1362.17 2125.21,1362.17 2181.81,1362.17 2238.42,1362.17 2295.02,1362.17 
  "/>
<circle clip-path="url(#clip3802)" style="fill:#000000; stroke:none; fill-opacity:1" cx="370.503" cy="85.5429" r="25"/>
<circle clip-path="url(#clip3802)" style="fill:#fee8c8; stroke:none; fill-opacity:1" cx="370.503" cy="85.5429" r="21"/>
<circle clip-path="url(#clip3802)" style="fill:#000000; stroke:none; fill-opacity:1" cx="427.107" cy="709.081" r="25"/>
<circle clip-path="url(#clip3802)" style="fill:#fee8c8; stroke:none; fill-opacity:1" cx="427.107" cy="709.081" r="21"/>
<circle clip-path="url(#clip3802)" style="fill:#000000; stroke:none; fill-opacity:1" cx="483.71" cy="1362.17" r="25"/>
<circle clip-path="url(#clip3802)" style="fill:#fee8c8; stroke:none; fill-opacity:1" cx="483.71" cy="1362.17" r="21"/>
<circle clip-path="url(#clip3802)" style="fill:#000000; stroke:none; fill-opacity:1" cx="540.313" cy="1362.17" r="25"/>
<circle clip-path="url(#clip3802)" style="fill:#fee8c8; stroke:none; fill-opacity:1" cx="540.313" cy="1362.17" r="21"/>
<circle clip-path="url(#clip3802)" style="fill:#000000; stroke:none; fill-opacity:1" cx="596.917" cy="1362.17" r="25"/>
<circle clip-path="url(#clip3802)" style="fill:#fee8c8; stroke:none; fill-opacity:1" cx="596.917" cy="1362.17" r="21"/>
<circle clip-path="url(#clip3802)" style="fill:#000000; stroke:none; fill-opacity:1" cx="653.52" cy="1362.17" r="25"/>
<circle clip-path="url(#clip3802)" style="fill:#fee8c8; stroke:none; fill-opacity:1" cx="653.52" cy="1362.17" r="21"/>
<circle clip-path="url(#clip3802)" style="fill:#000000; stroke:none; fill-opacity:1" cx="710.124" cy="1362.17" r="25"/>
<circle clip-path="url(#clip3802)" style="fill:#fee8c8; stroke:none; fill-opacity:1" cx="710.124" cy="1362.17" r="21"/>
<circle clip-path="url(#clip3802)" style="fill:#000000; stroke:none; fill-opacity:1" cx="766.727" cy="1362.17" r="25"/>
<circle clip-path="url(#clip3802)" style="fill:#fee8c8; stroke:none; fill-opacity:1" cx="766.727" cy="1362.17" r="21"/>
<circle clip-path="url(#clip3802)" style="fill:#000000; stroke:none; fill-opacity:1" cx="823.331" cy="1362.17" r="25"/>
<circle clip-path="url(#clip3802)" style="fill:#fee8c8; stroke:none; fill-opacity:1" cx="823.331" cy="1362.17" r="21"/>
<circle clip-path="url(#clip3802)" style="fill:#000000; stroke:none; fill-opacity:1" cx="879.934" cy="1362.17" r="25"/>
<circle clip-path="url(#clip3802)" style="fill:#fee8c8; stroke:none; fill-opacity:1" cx="879.934" cy="1362.17" r="21"/>
<circle clip-path="url(#clip3802)" style="fill:#000000; stroke:none; fill-opacity:1" cx="936.538" cy="1362.17" r="25"/>
<circle clip-path="url(#clip3802)" style="fill:#fee8c8; stroke:none; fill-opacity:1" cx="936.538" cy="1362.17" r="21"/>
<circle clip-path="url(#clip3802)" style="fill:#000000; stroke:none; fill-opacity:1" cx="993.141" cy="1362.17" r="25"/>
<circle clip-path="url(#clip3802)" style="fill:#fee8c8; stroke:none; fill-opacity:1" cx="993.141" cy="1362.17" r="21"/>
<circle clip-path="url(#clip3802)" style="fill:#000000; stroke:none; fill-opacity:1" cx="1049.74" cy="1362.17" r="25"/>
<circle clip-path="url(#clip3802)" style="fill:#fee8c8; stroke:none; fill-opacity:1" cx="1049.74" cy="1362.17" r="21"/>
<circle clip-path="url(#clip3802)" style="fill:#000000; stroke:none; fill-opacity:1" cx="1106.35" cy="1362.17" r="25"/>
<circle clip-path="url(#clip3802)" style="fill:#fee8c8; stroke:none; fill-opacity:1" cx="1106.35" cy="1362.17" r="21"/>
<circle clip-path="url(#clip3802)" style="fill:#000000; stroke:none; fill-opacity:1" cx="1162.95" cy="1362.17" r="25"/>
<circle clip-path="url(#clip3802)" style="fill:#fee8c8; stroke:none; fill-opacity:1" cx="1162.95" cy="1362.17" r="21"/>
<circle clip-path="url(#clip3802)" style="fill:#000000; stroke:none; fill-opacity:1" cx="1219.55" cy="1362.17" r="25"/>
<circle clip-path="url(#clip3802)" style="fill:#fee8c8; stroke:none; fill-opacity:1" cx="1219.55" cy="1362.17" r="21"/>
<circle clip-path="url(#clip3802)" style="fill:#000000; stroke:none; fill-opacity:1" cx="1276.16" cy="1362.17" r="25"/>
<circle clip-path="url(#clip3802)" style="fill:#fee8c8; stroke:none; fill-opacity:1" cx="1276.16" cy="1362.17" r="21"/>
<circle clip-path="url(#clip3802)" style="fill:#000000; stroke:none; fill-opacity:1" cx="1332.76" cy="1362.17" r="25"/>
<circle clip-path="url(#clip3802)" style="fill:#fee8c8; stroke:none; fill-opacity:1" cx="1332.76" cy="1362.17" r="21"/>
<circle clip-path="url(#clip3802)" style="fill:#000000; stroke:none; fill-opacity:1" cx="1389.37" cy="1362.17" r="25"/>
<circle clip-path="url(#clip3802)" style="fill:#fee8c8; stroke:none; fill-opacity:1" cx="1389.37" cy="1362.17" r="21"/>
<circle clip-path="url(#clip3802)" style="fill:#000000; stroke:none; fill-opacity:1" cx="1445.97" cy="1362.17" r="25"/>
<circle clip-path="url(#clip3802)" style="fill:#fee8c8; stroke:none; fill-opacity:1" cx="1445.97" cy="1362.17" r="21"/>
<circle clip-path="url(#clip3802)" style="fill:#000000; stroke:none; fill-opacity:1" cx="1502.57" cy="1362.17" r="25"/>
<circle clip-path="url(#clip3802)" style="fill:#fee8c8; stroke:none; fill-opacity:1" cx="1502.57" cy="1362.17" r="21"/>
<circle clip-path="url(#clip3802)" style="fill:#000000; stroke:none; fill-opacity:1" cx="1559.18" cy="1362.17" r="25"/>
<circle clip-path="url(#clip3802)" style="fill:#fee8c8; stroke:none; fill-opacity:1" cx="1559.18" cy="1362.17" r="21"/>
<circle clip-path="url(#clip3802)" style="fill:#000000; stroke:none; fill-opacity:1" cx="1615.78" cy="1362.17" r="25"/>
<circle clip-path="url(#clip3802)" style="fill:#fee8c8; stroke:none; fill-opacity:1" cx="1615.78" cy="1362.17" r="21"/>
<circle clip-path="url(#clip3802)" style="fill:#000000; stroke:none; fill-opacity:1" cx="1672.38" cy="1362.17" r="25"/>
<circle clip-path="url(#clip3802)" style="fill:#fee8c8; stroke:none; fill-opacity:1" cx="1672.38" cy="1362.17" r="21"/>
<circle clip-path="url(#clip3802)" style="fill:#000000; stroke:none; fill-opacity:1" cx="1728.99" cy="1362.17" r="25"/>
<circle clip-path="url(#clip3802)" style="fill:#fee8c8; stroke:none; fill-opacity:1" cx="1728.99" cy="1362.17" r="21"/>
<circle clip-path="url(#clip3802)" style="fill:#000000; stroke:none; fill-opacity:1" cx="1785.59" cy="1362.17" r="25"/>
<circle clip-path="url(#clip3802)" style="fill:#fee8c8; stroke:none; fill-opacity:1" cx="1785.59" cy="1362.17" r="21"/>
<circle clip-path="url(#clip3802)" style="fill:#000000; stroke:none; fill-opacity:1" cx="1842.19" cy="1362.17" r="25"/>
<circle clip-path="url(#clip3802)" style="fill:#fee8c8; stroke:none; fill-opacity:1" cx="1842.19" cy="1362.17" r="21"/>
<circle clip-path="url(#clip3802)" style="fill:#000000; stroke:none; fill-opacity:1" cx="1898.8" cy="1362.17" r="25"/>
<circle clip-path="url(#clip3802)" style="fill:#fee8c8; stroke:none; fill-opacity:1" cx="1898.8" cy="1362.17" r="21"/>
<circle clip-path="url(#clip3802)" style="fill:#000000; stroke:none; fill-opacity:1" cx="1955.4" cy="1362.17" r="25"/>
<circle clip-path="url(#clip3802)" style="fill:#fee8c8; stroke:none; fill-opacity:1" cx="1955.4" cy="1362.17" r="21"/>
<circle clip-path="url(#clip3802)" style="fill:#000000; stroke:none; fill-opacity:1" cx="2012" cy="1362.17" r="25"/>
<circle clip-path="url(#clip3802)" style="fill:#fee8c8; stroke:none; fill-opacity:1" cx="2012" cy="1362.17" r="21"/>
<circle clip-path="url(#clip3802)" style="fill:#000000; stroke:none; fill-opacity:1" cx="2068.61" cy="1362.17" r="25"/>
<circle clip-path="url(#clip3802)" style="fill:#fee8c8; stroke:none; fill-opacity:1" cx="2068.61" cy="1362.17" r="21"/>
<circle clip-path="url(#clip3802)" style="fill:#000000; stroke:none; fill-opacity:1" cx="2125.21" cy="1362.17" r="25"/>
<circle clip-path="url(#clip3802)" style="fill:#fee8c8; stroke:none; fill-opacity:1" cx="2125.21" cy="1362.17" r="21"/>
<circle clip-path="url(#clip3802)" style="fill:#000000; stroke:none; fill-opacity:1" cx="2181.81" cy="1362.17" r="25"/>
<circle clip-path="url(#clip3802)" style="fill:#fee8c8; stroke:none; fill-opacity:1" cx="2181.81" cy="1362.17" r="21"/>
<circle clip-path="url(#clip3802)" style="fill:#000000; stroke:none; fill-opacity:1" cx="2238.42" cy="1362.17" r="25"/>
<circle clip-path="url(#clip3802)" style="fill:#fee8c8; stroke:none; fill-opacity:1" cx="2238.42" cy="1362.17" r="21"/>
<circle clip-path="url(#clip3802)" style="fill:#000000; stroke:none; fill-opacity:1" cx="2295.02" cy="1362.17" r="25"/>
<circle clip-path="url(#clip3802)" style="fill:#fee8c8; stroke:none; fill-opacity:1" cx="2295.02" cy="1362.17" r="21"/>
<polygon clip-path="url(#clip3800)" points="
1642.92,402.924 2280.76,402.924 2280.76,85.4041 1642.92,85.4041 
  " fill="#ffffff" fill-rule="evenodd" fill-opacity="1"/>
<polyline clip-path="url(#clip3800)" style="stroke:#000000; stroke-width:4; stroke-opacity:1; fill:none" points="
  1642.92,402.924 2280.76,402.924 2280.76,85.4041 1642.92,85.4041 1642.92,402.924 
  "/>
<polyline clip-path="url(#clip3800)" style="stroke:#e34a33; stroke-width:24; stroke-opacity:1; fill:none" points="
  1666.92,191.244 1810.92,191.244 
  "/>
<circle clip-path="url(#clip3800)" style="fill:#000000; stroke:none; fill-opacity:1" cx="1750.92" cy="191.244" r="25"/>
<circle clip-path="url(#clip3800)" style="fill:#e34a33; stroke:none; fill-opacity:1" cx="1750.92" cy="191.244" r="21"/>
<g clip-path="url(#clip3800)">
<text style="fill:#000000; fill-opacity:1; font-family:Arial,Helvetica Neue,Helvetica,sans-serif; font-size:84px; text-anchor:start;" transform="rotate(0, 1834.92, 221.744)" x="1834.92" y="221.744">Indirect</text>
</g>
<polyline clip-path="url(#clip3800)" style="stroke:#fee8c8; stroke-width:4; stroke-opacity:1; fill:none" points="
  1666.92,297.084 1810.92,297.084 
  "/>
<circle clip-path="url(#clip3800)" style="fill:#000000; stroke:none; fill-opacity:1" cx="1750.92" cy="297.084" r="25"/>
<circle clip-path="url(#clip3800)" style="fill:#fee8c8; stroke:none; fill-opacity:1" cx="1750.92" cy="297.084" r="21"/>
<g clip-path="url(#clip3800)">
<text style="fill:#000000; fill-opacity:1; font-family:Arial,Helvetica Neue,Helvetica,sans-serif; font-size:84px; text-anchor:start;" transform="rotate(0, 1834.92, 327.584)" x="1834.92" y="327.584">Semidirect</text>
</g>
</svg>
