<?xml version="1.0" encoding="utf-8"?>
<svg xmlns="http://www.w3.org/2000/svg" xmlns:xlink="http://www.w3.org/1999/xlink" width="225" height="125" viewBox="0 0 900 500">
<defs>
  <clipPath id="clip7500">
    <rect x="0" y="0" width="2000" height="2000"/>
  </clipPath>
</defs>
<defs>
  <clipPath id="clip7501">
    <rect x="0" y="0" width="900" height="500"/>
  </clipPath>
</defs>
<polygon clip-path="url(#clip7501)" points="
0,500 900,500 900,0 0,0 
  " fill="#f0f0f0" fill-rule="evenodd" fill-opacity="1"/>
<defs>
  <clipPath id="clip7502">
    <rect x="180" y="0" width="631" height="500"/>
  </clipPath>
</defs>
<polygon clip-path="url(#clip7501)" points="
59.4418,458.025 880.315,458.025 880.315,11.811 59.4418,11.811 
  " fill="#f0f0f0" fill-rule="evenodd" fill-opacity="1"/>
<defs>
  <clipPath id="clip7503">
    <rect x="59" y="11" width="822" height="447"/>
  </clipPath>
</defs>
<polyline clip-path="url(#clip7503)" style="stroke:#000000; stroke-width:0.5; stroke-opacity:0.1; fill:none" points="
  82.6741,458.025 82.6741,11.811 
  "/>
<polyline clip-path="url(#clip7503)" style="stroke:#000000; stroke-width:0.5; stroke-opacity:0.1; fill:none" points="
  245.707,458.025 245.707,11.811 
  "/>
<polyline clip-path="url(#clip7503)" style="stroke:#000000; stroke-width:0.5; stroke-opacity:0.1; fill:none" points="
  408.741,458.025 408.741,11.811 
  "/>
<polyline clip-path="url(#clip7503)" style="stroke:#000000; stroke-width:0.5; stroke-opacity:0.1; fill:none" points="
  571.774,458.025 571.774,11.811 
  "/>
<polyline clip-path="url(#clip7503)" style="stroke:#000000; stroke-width:0.5; stroke-opacity:0.1; fill:none" points="
  734.808,458.025 734.808,11.811 
  "/>
<polyline clip-path="url(#clip7503)" style="stroke:#000000; stroke-width:0.5; stroke-opacity:0.1; fill:none" points="
  59.4418,408.103 880.315,408.103 
  "/>
<polyline clip-path="url(#clip7503)" style="stroke:#000000; stroke-width:0.5; stroke-opacity:0.1; fill:none" points="
  59.4418,331.37 880.315,331.37 
  "/>
<polyline clip-path="url(#clip7503)" style="stroke:#000000; stroke-width:0.5; stroke-opacity:0.1; fill:none" points="
  59.4418,254.638 880.315,254.638 
  "/>
<polyline clip-path="url(#clip7503)" style="stroke:#000000; stroke-width:0.5; stroke-opacity:0.1; fill:none" points="
  59.4418,177.905 880.315,177.905 
  "/>
<polyline clip-path="url(#clip7503)" style="stroke:#000000; stroke-width:0.5; stroke-opacity:0.1; fill:none" points="
  59.4418,101.172 880.315,101.172 
  "/>
<polyline clip-path="url(#clip7503)" style="stroke:#000000; stroke-width:0.5; stroke-opacity:0.1; fill:none" points="
  59.4418,24.4398 880.315,24.4398 
  "/>
<polyline clip-path="url(#clip7501)" style="stroke:#000000; stroke-width:1; stroke-opacity:1; fill:none" points="
  59.4418,458.025 880.315,458.025 
  "/>
<polyline clip-path="url(#clip7501)" style="stroke:#000000; stroke-width:1; stroke-opacity:1; fill:none" points="
  59.4418,458.025 59.4418,11.811 
  "/>
<polyline clip-path="url(#clip7501)" style="stroke:#000000; stroke-width:1; stroke-opacity:1; fill:none" points="
  82.6741,458.025 82.6741,451.332 
  "/>
<polyline clip-path="url(#clip7501)" style="stroke:#000000; stroke-width:1; stroke-opacity:1; fill:none" points="
  245.707,458.025 245.707,451.332 
  "/>
<polyline clip-path="url(#clip7501)" style="stroke:#000000; stroke-width:1; stroke-opacity:1; fill:none" points="
  408.741,458.025 408.741,451.332 
  "/>
<polyline clip-path="url(#clip7501)" style="stroke:#000000; stroke-width:1; stroke-opacity:1; fill:none" points="
  571.774,458.025 571.774,451.332 
  "/>
<polyline clip-path="url(#clip7501)" style="stroke:#000000; stroke-width:1; stroke-opacity:1; fill:none" points="
  734.808,458.025 734.808,451.332 
  "/>
<polyline clip-path="url(#clip7501)" style="stroke:#000000; stroke-width:1; stroke-opacity:1; fill:none" points="
  59.4418,408.103 71.7549,408.103 
  "/>
<polyline clip-path="url(#clip7501)" style="stroke:#000000; stroke-width:1; stroke-opacity:1; fill:none" points="
  59.4418,331.37 71.7549,331.37 
  "/>
<polyline clip-path="url(#clip7501)" style="stroke:#000000; stroke-width:1; stroke-opacity:1; fill:none" points="
  59.4418,254.638 71.7549,254.638 
  "/>
<polyline clip-path="url(#clip7501)" style="stroke:#000000; stroke-width:1; stroke-opacity:1; fill:none" points="
  59.4418,177.905 71.7549,177.905 
  "/>
<polyline clip-path="url(#clip7501)" style="stroke:#000000; stroke-width:1; stroke-opacity:1; fill:none" points="
  59.4418,101.172 71.7549,101.172 
  "/>
<polyline clip-path="url(#clip7501)" style="stroke:#000000; stroke-width:1; stroke-opacity:1; fill:none" points="
  59.4418,24.4398 71.7549,24.4398 
  "/>
<g clip-path="url(#clip7501)">
<text style="fill:#000000; fill-opacity:1; font-family:Arial,Helvetica Neue,Helvetica,sans-serif; font-size:18px; text-anchor:middle;" transform="rotate(0, 82.6741, 478.125)" x="82.6741" y="478.125">0.0</text>
</g>
<g clip-path="url(#clip7501)">
<text style="fill:#000000; fill-opacity:1; font-family:Arial,Helvetica Neue,Helvetica,sans-serif; font-size:18px; text-anchor:middle;" transform="rotate(0, 245.707, 478.125)" x="245.707" y="478.125">0.2</text>
</g>
<g clip-path="url(#clip7501)">
<text style="fill:#000000; fill-opacity:1; font-family:Arial,Helvetica Neue,Helvetica,sans-serif; font-size:18px; text-anchor:middle;" transform="rotate(0, 408.741, 478.125)" x="408.741" y="478.125">0.4</text>
</g>
<g clip-path="url(#clip7501)">
<text style="fill:#000000; fill-opacity:1; font-family:Arial,Helvetica Neue,Helvetica,sans-serif; font-size:18px; text-anchor:middle;" transform="rotate(0, 571.774, 478.125)" x="571.774" y="478.125">0.6</text>
</g>
<g clip-path="url(#clip7501)">
<text style="fill:#000000; fill-opacity:1; font-family:Arial,Helvetica Neue,Helvetica,sans-serif; font-size:18px; text-anchor:middle;" transform="rotate(0, 734.808, 478.125)" x="734.808" y="478.125">0.8</text>
</g>
<g clip-path="url(#clip7501)">
<text style="fill:#000000; fill-opacity:1; font-family:Arial,Helvetica Neue,Helvetica,sans-serif; font-size:18px; text-anchor:end;" transform="rotate(0, 50.4418, 414.603)" x="50.4418" y="414.603">15</text>
</g>
<g clip-path="url(#clip7501)">
<text style="fill:#000000; fill-opacity:1; font-family:Arial,Helvetica Neue,Helvetica,sans-serif; font-size:18px; text-anchor:end;" transform="rotate(0, 50.4418, 337.87)" x="50.4418" y="337.87">20</text>
</g>
<g clip-path="url(#clip7501)">
<text style="fill:#000000; fill-opacity:1; font-family:Arial,Helvetica Neue,Helvetica,sans-serif; font-size:18px; text-anchor:end;" transform="rotate(0, 50.4418, 261.138)" x="50.4418" y="261.138">25</text>
</g>
<g clip-path="url(#clip7501)">
<text style="fill:#000000; fill-opacity:1; font-family:Arial,Helvetica Neue,Helvetica,sans-serif; font-size:18px; text-anchor:end;" transform="rotate(0, 50.4418, 184.405)" x="50.4418" y="184.405">30</text>
</g>
<g clip-path="url(#clip7501)">
<text style="fill:#000000; fill-opacity:1; font-family:Arial,Helvetica Neue,Helvetica,sans-serif; font-size:18px; text-anchor:end;" transform="rotate(0, 50.4418, 107.672)" x="50.4418" y="107.672">35</text>
</g>
<g clip-path="url(#clip7501)">
<text style="fill:#000000; fill-opacity:1; font-family:Arial,Helvetica Neue,Helvetica,sans-serif; font-size:18px; text-anchor:end;" transform="rotate(0, 50.4418, 30.9398)" x="50.4418" y="30.9398">40</text>
</g>
<g clip-path="url(#clip7501)">
<text style="fill:#000000; fill-opacity:1; font-family:Arial,Helvetica Neue,Helvetica,sans-serif; font-size:21px; text-anchor:middle;" transform="rotate(0, 469.878, 497)" x="469.878" y="497">time</text>
</g>
<g clip-path="url(#clip7501)">
<text style="fill:#000000; fill-opacity:1; font-family:Arial,Helvetica Neue,Helvetica,sans-serif; font-size:21px; text-anchor:middle;" transform="rotate(-90, 18, 234.918)" x="18" y="234.918">worst case disturbance</text>
</g>
<polyline clip-path="url(#clip7503)" style="stroke:#2c7fb8; stroke-width:8; stroke-opacity:1; fill:none" points="
  82.6741,24.4398 123.432,24.4398 164.191,24.4398 204.949,24.4398 245.707,24.4398 286.466,24.4398 327.224,24.4398 367.983,24.4398 408.741,24.4398 449.499,24.4398 
  490.258,24.4398 531.016,24.4398 571.774,24.4398 612.533,24.4398 653.291,24.4398 694.049,24.4398 734.808,24.4398 775.566,24.4398 816.324,24.4398 857.083,24.4398 
  
  "/>
<polyline clip-path="url(#clip7503)" style="stroke:#7fcdbb; stroke-width:8; stroke-opacity:1; fill:none" points="
  82.6741,24.4398 123.432,24.7903 164.191,203.932 204.949,445.396 245.707,130.311 286.466,24.4397 327.224,24.4398 367.983,41.4066 408.741,287.837 449.499,288.27 
  490.258,287.837 531.016,41.4196 571.774,24.4398 612.533,24.4397 653.291,130.229 694.049,445.318 734.808,204.011 775.566,24.7847 816.324,24.4398 857.083,24.4398 
  
  "/>
<polygon clip-path="url(#clip7501)" points="
473.394,111.171 853.315,111.171 853.315,43.131 473.394,43.131 
  " fill="#ffffff" fill-rule="evenodd" fill-opacity="1"/>
<polyline clip-path="url(#clip7501)" style="stroke:#000000; stroke-width:1; stroke-opacity:1; fill:none" points="
  473.394,111.171 853.315,111.171 853.315,43.131 473.394,43.131 473.394,111.171 
  "/>
<polyline clip-path="url(#clip7501)" style="stroke:#2c7fb8; stroke-width:8; stroke-opacity:1; fill:none" points="
  482.394,65.811 536.394,65.811 
  "/>
<g clip-path="url(#clip7501)">
<text style="fill:#000000; fill-opacity:1; font-family:Arial,Helvetica Neue,Helvetica,sans-serif; font-size:18px; text-anchor:start;" transform="rotate(0, 545.394, 72.311)" x="545.394" y="72.311">without bilevel robustness constraint</text>
</g>
<polyline clip-path="url(#clip7501)" style="stroke:#7fcdbb; stroke-width:8; stroke-opacity:1; fill:none" points="
  482.394,88.491 536.394,88.491 
  "/>
<g clip-path="url(#clip7501)">
<text style="fill:#000000; fill-opacity:1; font-family:Arial,Helvetica Neue,Helvetica,sans-serif; font-size:18px; text-anchor:start;" transform="rotate(0, 545.394, 94.991)" x="545.394" y="94.991">with bilevel robustness constraint</text>
</g>
</svg>
