<?xml version="1.0" encoding="utf-8"?>
<svg xmlns="http://www.w3.org/2000/svg" xmlns:xlink="http://www.w3.org/1999/xlink" width="200" height="125" viewBox="0 0 800 500">
<defs>
  <clipPath id="clip9000">
    <rect x="0" y="0" width="2000" height="2000"/>
  </clipPath>
</defs>
<defs>
  <clipPath id="clip9001">
    <rect x="0" y="0" width="800" height="500"/>
  </clipPath>
</defs>
<polygon clip-path="url(#clip9001)" points="
0,500 800,500 800,0 0,0 
  " fill="#ffffff" fill-rule="evenodd" fill-opacity="1"/>
<defs>
  <clipPath id="clip9002">
    <rect x="160" y="0" width="561" height="500"/>
  </clipPath>
</defs>
<polygon clip-path="url(#clip9001)" points="
89.5495,456.715 780.315,456.715 780.315,11.811 89.5495,11.811 
  " fill="#ffffff" fill-rule="evenodd" fill-opacity="1"/>
<defs>
  <clipPath id="clip9003">
    <rect x="89" y="11" width="692" height="446"/>
  </clipPath>
</defs>
<polyline clip-path="url(#clip9003)" style="stroke:#000000; stroke-width:0.5; stroke-opacity:0.1; fill:none" points="
  109.099,456.715 109.099,11.811 
  "/>
<polyline clip-path="url(#clip9003)" style="stroke:#000000; stroke-width:0.5; stroke-opacity:0.1; fill:none" points="
  246.292,456.715 246.292,11.811 
  "/>
<polyline clip-path="url(#clip9003)" style="stroke:#000000; stroke-width:0.5; stroke-opacity:0.1; fill:none" points="
  383.485,456.715 383.485,11.811 
  "/>
<polyline clip-path="url(#clip9003)" style="stroke:#000000; stroke-width:0.5; stroke-opacity:0.1; fill:none" points="
  520.678,456.715 520.678,11.811 
  "/>
<polyline clip-path="url(#clip9003)" style="stroke:#000000; stroke-width:0.5; stroke-opacity:0.1; fill:none" points="
  657.87,456.715 657.87,11.811 
  "/>
<polyline clip-path="url(#clip9003)" style="stroke:#000000; stroke-width:0.5; stroke-opacity:0.1; fill:none" points="
  89.5495,436.517 780.315,436.517 
  "/>
<polyline clip-path="url(#clip9003)" style="stroke:#000000; stroke-width:0.5; stroke-opacity:0.1; fill:none" points="
  89.5495,333.489 780.315,333.489 
  "/>
<polyline clip-path="url(#clip9003)" style="stroke:#000000; stroke-width:0.5; stroke-opacity:0.1; fill:none" points="
  89.5495,230.46 780.315,230.46 
  "/>
<polyline clip-path="url(#clip9003)" style="stroke:#000000; stroke-width:0.5; stroke-opacity:0.1; fill:none" points="
  89.5495,127.431 780.315,127.431 
  "/>
<polyline clip-path="url(#clip9003)" style="stroke:#000000; stroke-width:0.5; stroke-opacity:0.1; fill:none" points="
  89.5495,24.4026 780.315,24.4026 
  "/>
<polyline clip-path="url(#clip9001)" style="stroke:#000000; stroke-width:1; stroke-opacity:1; fill:none" points="
  89.5495,456.715 780.315,456.715 
  "/>
<polyline clip-path="url(#clip9001)" style="stroke:#000000; stroke-width:1; stroke-opacity:1; fill:none" points="
  89.5495,456.715 89.5495,11.811 
  "/>
<polyline clip-path="url(#clip9001)" style="stroke:#000000; stroke-width:1; stroke-opacity:1; fill:none" points="
  109.099,456.715 109.099,450.041 
  "/>
<polyline clip-path="url(#clip9001)" style="stroke:#000000; stroke-width:1; stroke-opacity:1; fill:none" points="
  246.292,456.715 246.292,450.041 
  "/>
<polyline clip-path="url(#clip9001)" style="stroke:#000000; stroke-width:1; stroke-opacity:1; fill:none" points="
  383.485,456.715 383.485,450.041 
  "/>
<polyline clip-path="url(#clip9001)" style="stroke:#000000; stroke-width:1; stroke-opacity:1; fill:none" points="
  520.678,456.715 520.678,450.041 
  "/>
<polyline clip-path="url(#clip9001)" style="stroke:#000000; stroke-width:1; stroke-opacity:1; fill:none" points="
  657.87,456.715 657.87,450.041 
  "/>
<polyline clip-path="url(#clip9001)" style="stroke:#000000; stroke-width:1; stroke-opacity:1; fill:none" points="
  89.5495,436.517 99.9109,436.517 
  "/>
<polyline clip-path="url(#clip9001)" style="stroke:#000000; stroke-width:1; stroke-opacity:1; fill:none" points="
  89.5495,333.489 99.9109,333.489 
  "/>
<polyline clip-path="url(#clip9001)" style="stroke:#000000; stroke-width:1; stroke-opacity:1; fill:none" points="
  89.5495,230.46 99.9109,230.46 
  "/>
<polyline clip-path="url(#clip9001)" style="stroke:#000000; stroke-width:1; stroke-opacity:1; fill:none" points="
  89.5495,127.431 99.9109,127.431 
  "/>
<polyline clip-path="url(#clip9001)" style="stroke:#000000; stroke-width:1; stroke-opacity:1; fill:none" points="
  89.5495,24.4026 99.9109,24.4026 
  "/>
<g clip-path="url(#clip9001)">
<text style="fill:#000000; fill-opacity:1; font-family:Arial,Helvetica Neue,Helvetica,sans-serif; font-size:18px; text-anchor:middle;" transform="rotate(0, 109.099, 476.315)" x="109.099" y="476.315">0.0</text>
</g>
<g clip-path="url(#clip9001)">
<text style="fill:#000000; fill-opacity:1; font-family:Arial,Helvetica Neue,Helvetica,sans-serif; font-size:18px; text-anchor:middle;" transform="rotate(0, 246.292, 476.315)" x="246.292" y="476.315">0.2</text>
</g>
<g clip-path="url(#clip9001)">
<text style="fill:#000000; fill-opacity:1; font-family:Arial,Helvetica Neue,Helvetica,sans-serif; font-size:18px; text-anchor:middle;" transform="rotate(0, 383.485, 476.315)" x="383.485" y="476.315">0.4</text>
</g>
<g clip-path="url(#clip9001)">
<text style="fill:#000000; fill-opacity:1; font-family:Arial,Helvetica Neue,Helvetica,sans-serif; font-size:18px; text-anchor:middle;" transform="rotate(0, 520.678, 476.315)" x="520.678" y="476.315">0.6</text>
</g>
<g clip-path="url(#clip9001)">
<text style="fill:#000000; fill-opacity:1; font-family:Arial,Helvetica Neue,Helvetica,sans-serif; font-size:18px; text-anchor:middle;" transform="rotate(0, 657.87, 476.315)" x="657.87" y="476.315">0.8</text>
</g>
<g clip-path="url(#clip9001)">
<text style="fill:#000000; fill-opacity:1; font-family:Arial,Helvetica Neue,Helvetica,sans-serif; font-size:18px; text-anchor:end;" transform="rotate(0, 81.5495, 443.017)" x="81.5495" y="443.017">2000</text>
</g>
<g clip-path="url(#clip9001)">
<text style="fill:#000000; fill-opacity:1; font-family:Arial,Helvetica Neue,Helvetica,sans-serif; font-size:18px; text-anchor:end;" transform="rotate(0, 81.5495, 339.989)" x="81.5495" y="339.989">4000</text>
</g>
<g clip-path="url(#clip9001)">
<text style="fill:#000000; fill-opacity:1; font-family:Arial,Helvetica Neue,Helvetica,sans-serif; font-size:18px; text-anchor:end;" transform="rotate(0, 81.5495, 236.96)" x="81.5495" y="236.96">6000</text>
</g>
<g clip-path="url(#clip9001)">
<text style="fill:#000000; fill-opacity:1; font-family:Arial,Helvetica Neue,Helvetica,sans-serif; font-size:18px; text-anchor:end;" transform="rotate(0, 81.5495, 133.931)" x="81.5495" y="133.931">8000</text>
</g>
<g clip-path="url(#clip9001)">
<text style="fill:#000000; fill-opacity:1; font-family:Arial,Helvetica Neue,Helvetica,sans-serif; font-size:18px; text-anchor:end;" transform="rotate(0, 81.5495, 30.9026)" x="81.5495" y="30.9026">10000</text>
</g>
<g clip-path="url(#clip9001)">
<text style="fill:#000000; fill-opacity:1; font-family:Arial,Helvetica Neue,Helvetica,sans-serif; font-size:21px; text-anchor:middle;" transform="rotate(0, 434.932, 497)" x="434.932" y="497">time</text>
</g>
<g clip-path="url(#clip9001)">
<text style="fill:#000000; fill-opacity:1; font-family:Arial,Helvetica Neue,Helvetica,sans-serif; font-size:21px; text-anchor:middle;" transform="rotate(-90, 18, 234.263)" x="18" y="234.263">worst case disturbance</text>
</g>
<polyline clip-path="url(#clip9003)" style="stroke:#483c8b; stroke-width:4; stroke-opacity:1; fill:none" points="
  109.099,24.4026 143.398,24.4026 177.696,24.4026 211.994,24.4026 246.292,24.4026 280.59,24.4026 314.889,24.4026 349.187,24.4026 383.485,24.4026 417.783,24.4026 
  452.081,24.4026 486.379,24.4026 520.678,24.4026 554.976,24.4026 589.274,24.4026 623.572,24.4026 657.87,24.4026 692.169,24.4026 726.467,24.4026 760.765,24.4026 
  
  "/>
<circle clip-path="url(#clip9003)" style="fill:#000000; stroke:none; fill-opacity:1" cx="109.099" cy="24.4026" r="4"/>
<circle clip-path="url(#clip9003)" style="fill:#483c8b; stroke:none; fill-opacity:1" cx="109.099" cy="24.4026" r="3"/>
<circle clip-path="url(#clip9003)" style="fill:#000000; stroke:none; fill-opacity:1" cx="143.398" cy="24.4026" r="4"/>
<circle clip-path="url(#clip9003)" style="fill:#483c8b; stroke:none; fill-opacity:1" cx="143.398" cy="24.4026" r="3"/>
<circle clip-path="url(#clip9003)" style="fill:#000000; stroke:none; fill-opacity:1" cx="177.696" cy="24.4026" r="4"/>
<circle clip-path="url(#clip9003)" style="fill:#483c8b; stroke:none; fill-opacity:1" cx="177.696" cy="24.4026" r="3"/>
<circle clip-path="url(#clip9003)" style="fill:#000000; stroke:none; fill-opacity:1" cx="211.994" cy="24.4026" r="4"/>
<circle clip-path="url(#clip9003)" style="fill:#483c8b; stroke:none; fill-opacity:1" cx="211.994" cy="24.4026" r="3"/>
<circle clip-path="url(#clip9003)" style="fill:#000000; stroke:none; fill-opacity:1" cx="246.292" cy="24.4026" r="4"/>
<circle clip-path="url(#clip9003)" style="fill:#483c8b; stroke:none; fill-opacity:1" cx="246.292" cy="24.4026" r="3"/>
<circle clip-path="url(#clip9003)" style="fill:#000000; stroke:none; fill-opacity:1" cx="280.59" cy="24.4026" r="4"/>
<circle clip-path="url(#clip9003)" style="fill:#483c8b; stroke:none; fill-opacity:1" cx="280.59" cy="24.4026" r="3"/>
<circle clip-path="url(#clip9003)" style="fill:#000000; stroke:none; fill-opacity:1" cx="314.889" cy="24.4026" r="4"/>
<circle clip-path="url(#clip9003)" style="fill:#483c8b; stroke:none; fill-opacity:1" cx="314.889" cy="24.4026" r="3"/>
<circle clip-path="url(#clip9003)" style="fill:#000000; stroke:none; fill-opacity:1" cx="349.187" cy="24.4026" r="4"/>
<circle clip-path="url(#clip9003)" style="fill:#483c8b; stroke:none; fill-opacity:1" cx="349.187" cy="24.4026" r="3"/>
<circle clip-path="url(#clip9003)" style="fill:#000000; stroke:none; fill-opacity:1" cx="383.485" cy="24.4026" r="4"/>
<circle clip-path="url(#clip9003)" style="fill:#483c8b; stroke:none; fill-opacity:1" cx="383.485" cy="24.4026" r="3"/>
<circle clip-path="url(#clip9003)" style="fill:#000000; stroke:none; fill-opacity:1" cx="417.783" cy="24.4026" r="4"/>
<circle clip-path="url(#clip9003)" style="fill:#483c8b; stroke:none; fill-opacity:1" cx="417.783" cy="24.4026" r="3"/>
<circle clip-path="url(#clip9003)" style="fill:#000000; stroke:none; fill-opacity:1" cx="452.081" cy="24.4026" r="4"/>
<circle clip-path="url(#clip9003)" style="fill:#483c8b; stroke:none; fill-opacity:1" cx="452.081" cy="24.4026" r="3"/>
<circle clip-path="url(#clip9003)" style="fill:#000000; stroke:none; fill-opacity:1" cx="486.379" cy="24.4026" r="4"/>
<circle clip-path="url(#clip9003)" style="fill:#483c8b; stroke:none; fill-opacity:1" cx="486.379" cy="24.4026" r="3"/>
<circle clip-path="url(#clip9003)" style="fill:#000000; stroke:none; fill-opacity:1" cx="520.678" cy="24.4026" r="4"/>
<circle clip-path="url(#clip9003)" style="fill:#483c8b; stroke:none; fill-opacity:1" cx="520.678" cy="24.4026" r="3"/>
<circle clip-path="url(#clip9003)" style="fill:#000000; stroke:none; fill-opacity:1" cx="554.976" cy="24.4026" r="4"/>
<circle clip-path="url(#clip9003)" style="fill:#483c8b; stroke:none; fill-opacity:1" cx="554.976" cy="24.4026" r="3"/>
<circle clip-path="url(#clip9003)" style="fill:#000000; stroke:none; fill-opacity:1" cx="589.274" cy="24.4026" r="4"/>
<circle clip-path="url(#clip9003)" style="fill:#483c8b; stroke:none; fill-opacity:1" cx="589.274" cy="24.4026" r="3"/>
<circle clip-path="url(#clip9003)" style="fill:#000000; stroke:none; fill-opacity:1" cx="623.572" cy="24.4026" r="4"/>
<circle clip-path="url(#clip9003)" style="fill:#483c8b; stroke:none; fill-opacity:1" cx="623.572" cy="24.4026" r="3"/>
<circle clip-path="url(#clip9003)" style="fill:#000000; stroke:none; fill-opacity:1" cx="657.87" cy="24.4026" r="4"/>
<circle clip-path="url(#clip9003)" style="fill:#483c8b; stroke:none; fill-opacity:1" cx="657.87" cy="24.4026" r="3"/>
<circle clip-path="url(#clip9003)" style="fill:#000000; stroke:none; fill-opacity:1" cx="692.169" cy="24.4026" r="4"/>
<circle clip-path="url(#clip9003)" style="fill:#483c8b; stroke:none; fill-opacity:1" cx="692.169" cy="24.4026" r="3"/>
<circle clip-path="url(#clip9003)" style="fill:#000000; stroke:none; fill-opacity:1" cx="726.467" cy="24.4026" r="4"/>
<circle clip-path="url(#clip9003)" style="fill:#483c8b; stroke:none; fill-opacity:1" cx="726.467" cy="24.4026" r="3"/>
<circle clip-path="url(#clip9003)" style="fill:#000000; stroke:none; fill-opacity:1" cx="760.765" cy="24.4026" r="4"/>
<circle clip-path="url(#clip9003)" style="fill:#483c8b; stroke:none; fill-opacity:1" cx="760.765" cy="24.4026" r="3"/>
<polyline clip-path="url(#clip9003)" style="stroke:#228b22; stroke-width:4; stroke-opacity:1; fill:none" points="
  109.099,24.4026 143.398,24.4026 177.696,24.8141 211.994,24.5719 246.292,24.4026 280.59,33.351 314.889,81.6528 349.187,158.379 383.485,266.111 417.783,417.769 
  452.081,444.123 486.379,389.337 520.678,263.171 554.976,124.491 589.274,44.4116 623.572,27.9774 657.87,24.6626 692.169,24.4026 726.467,24.4026 760.765,24.4026 
  
  "/>
<circle clip-path="url(#clip9003)" style="fill:#000000; stroke:none; fill-opacity:1" cx="109.099" cy="24.4026" r="4"/>
<circle clip-path="url(#clip9003)" style="fill:#228b22; stroke:none; fill-opacity:1" cx="109.099" cy="24.4026" r="3"/>
<circle clip-path="url(#clip9003)" style="fill:#000000; stroke:none; fill-opacity:1" cx="143.398" cy="24.4026" r="4"/>
<circle clip-path="url(#clip9003)" style="fill:#228b22; stroke:none; fill-opacity:1" cx="143.398" cy="24.4026" r="3"/>
<circle clip-path="url(#clip9003)" style="fill:#000000; stroke:none; fill-opacity:1" cx="177.696" cy="24.8141" r="4"/>
<circle clip-path="url(#clip9003)" style="fill:#228b22; stroke:none; fill-opacity:1" cx="177.696" cy="24.8141" r="3"/>
<circle clip-path="url(#clip9003)" style="fill:#000000; stroke:none; fill-opacity:1" cx="211.994" cy="24.5719" r="4"/>
<circle clip-path="url(#clip9003)" style="fill:#228b22; stroke:none; fill-opacity:1" cx="211.994" cy="24.5719" r="3"/>
<circle clip-path="url(#clip9003)" style="fill:#000000; stroke:none; fill-opacity:1" cx="246.292" cy="24.4026" r="4"/>
<circle clip-path="url(#clip9003)" style="fill:#228b22; stroke:none; fill-opacity:1" cx="246.292" cy="24.4026" r="3"/>
<circle clip-path="url(#clip9003)" style="fill:#000000; stroke:none; fill-opacity:1" cx="280.59" cy="33.351" r="4"/>
<circle clip-path="url(#clip9003)" style="fill:#228b22; stroke:none; fill-opacity:1" cx="280.59" cy="33.351" r="3"/>
<circle clip-path="url(#clip9003)" style="fill:#000000; stroke:none; fill-opacity:1" cx="314.889" cy="81.6528" r="4"/>
<circle clip-path="url(#clip9003)" style="fill:#228b22; stroke:none; fill-opacity:1" cx="314.889" cy="81.6528" r="3"/>
<circle clip-path="url(#clip9003)" style="fill:#000000; stroke:none; fill-opacity:1" cx="349.187" cy="158.379" r="4"/>
<circle clip-path="url(#clip9003)" style="fill:#228b22; stroke:none; fill-opacity:1" cx="349.187" cy="158.379" r="3"/>
<circle clip-path="url(#clip9003)" style="fill:#000000; stroke:none; fill-opacity:1" cx="383.485" cy="266.111" r="4"/>
<circle clip-path="url(#clip9003)" style="fill:#228b22; stroke:none; fill-opacity:1" cx="383.485" cy="266.111" r="3"/>
<circle clip-path="url(#clip9003)" style="fill:#000000; stroke:none; fill-opacity:1" cx="417.783" cy="417.769" r="4"/>
<circle clip-path="url(#clip9003)" style="fill:#228b22; stroke:none; fill-opacity:1" cx="417.783" cy="417.769" r="3"/>
<circle clip-path="url(#clip9003)" style="fill:#000000; stroke:none; fill-opacity:1" cx="452.081" cy="444.123" r="4"/>
<circle clip-path="url(#clip9003)" style="fill:#228b22; stroke:none; fill-opacity:1" cx="452.081" cy="444.123" r="3"/>
<circle clip-path="url(#clip9003)" style="fill:#000000; stroke:none; fill-opacity:1" cx="486.379" cy="389.337" r="4"/>
<circle clip-path="url(#clip9003)" style="fill:#228b22; stroke:none; fill-opacity:1" cx="486.379" cy="389.337" r="3"/>
<circle clip-path="url(#clip9003)" style="fill:#000000; stroke:none; fill-opacity:1" cx="520.678" cy="263.171" r="4"/>
<circle clip-path="url(#clip9003)" style="fill:#228b22; stroke:none; fill-opacity:1" cx="520.678" cy="263.171" r="3"/>
<circle clip-path="url(#clip9003)" style="fill:#000000; stroke:none; fill-opacity:1" cx="554.976" cy="124.491" r="4"/>
<circle clip-path="url(#clip9003)" style="fill:#228b22; stroke:none; fill-opacity:1" cx="554.976" cy="124.491" r="3"/>
<circle clip-path="url(#clip9003)" style="fill:#000000; stroke:none; fill-opacity:1" cx="589.274" cy="44.4116" r="4"/>
<circle clip-path="url(#clip9003)" style="fill:#228b22; stroke:none; fill-opacity:1" cx="589.274" cy="44.4116" r="3"/>
<circle clip-path="url(#clip9003)" style="fill:#000000; stroke:none; fill-opacity:1" cx="623.572" cy="27.9774" r="4"/>
<circle clip-path="url(#clip9003)" style="fill:#228b22; stroke:none; fill-opacity:1" cx="623.572" cy="27.9774" r="3"/>
<circle clip-path="url(#clip9003)" style="fill:#000000; stroke:none; fill-opacity:1" cx="657.87" cy="24.6626" r="4"/>
<circle clip-path="url(#clip9003)" style="fill:#228b22; stroke:none; fill-opacity:1" cx="657.87" cy="24.6626" r="3"/>
<circle clip-path="url(#clip9003)" style="fill:#000000; stroke:none; fill-opacity:1" cx="692.169" cy="24.4026" r="4"/>
<circle clip-path="url(#clip9003)" style="fill:#228b22; stroke:none; fill-opacity:1" cx="692.169" cy="24.4026" r="3"/>
<circle clip-path="url(#clip9003)" style="fill:#000000; stroke:none; fill-opacity:1" cx="726.467" cy="24.4026" r="4"/>
<circle clip-path="url(#clip9003)" style="fill:#228b22; stroke:none; fill-opacity:1" cx="726.467" cy="24.4026" r="3"/>
<circle clip-path="url(#clip9003)" style="fill:#000000; stroke:none; fill-opacity:1" cx="760.765" cy="24.4026" r="4"/>
<circle clip-path="url(#clip9003)" style="fill:#228b22; stroke:none; fill-opacity:1" cx="760.765" cy="24.4026" r="3"/>
<polygon clip-path="url(#clip9001)" points="
393.415,105.171 756.315,105.171 756.315,37.131 393.415,37.131 
  " fill="#ffffff" fill-rule="evenodd" fill-opacity="1"/>
<polyline clip-path="url(#clip9001)" style="stroke:#000000; stroke-width:1; stroke-opacity:1; fill:none" points="
  393.415,105.171 756.315,105.171 756.315,37.131 393.415,37.131 393.415,105.171 
  "/>
<polyline clip-path="url(#clip9001)" style="stroke:#483c8b; stroke-width:4; stroke-opacity:1; fill:none" points="
  401.415,59.811 449.415,59.811 
  "/>
<circle clip-path="url(#clip9001)" style="fill:#000000; stroke:none; fill-opacity:1" cx="429.415" cy="59.811" r="6"/>
<circle clip-path="url(#clip9001)" style="fill:#483c8b; stroke:none; fill-opacity:1" cx="429.415" cy="59.811" r="5"/>
<g clip-path="url(#clip9001)">
<text style="fill:#000000; fill-opacity:1; font-family:Arial,Helvetica Neue,Helvetica,sans-serif; font-size:18px; text-anchor:start;" transform="rotate(0, 457.415, 66.311)" x="457.415" y="66.311">without bilevel robustness objective</text>
</g>
<polyline clip-path="url(#clip9001)" style="stroke:#228b22; stroke-width:4; stroke-opacity:1; fill:none" points="
  401.415,82.491 449.415,82.491 
  "/>
<circle clip-path="url(#clip9001)" style="fill:#000000; stroke:none; fill-opacity:1" cx="429.415" cy="82.491" r="6"/>
<circle clip-path="url(#clip9001)" style="fill:#228b22; stroke:none; fill-opacity:1" cx="429.415" cy="82.491" r="5"/>
<g clip-path="url(#clip9001)">
<text style="fill:#000000; fill-opacity:1; font-family:Arial,Helvetica Neue,Helvetica,sans-serif; font-size:18px; text-anchor:start;" transform="rotate(0, 457.415, 88.991)" x="457.415" y="88.991">with bilevel robustness objective</text>
</g>
</svg>
