<?xml version="1.0" encoding="utf-8"?>
<svg xmlns="http://www.w3.org/2000/svg" xmlns:xlink="http://www.w3.org/1999/xlink" width="225" height="125" viewBox="0 0 900 500">
<defs>
  <clipPath id="clip9600">
    <rect x="0" y="0" width="2000" height="2000"/>
  </clipPath>
</defs>
<defs>
  <clipPath id="clip9601">
    <rect x="0" y="0" width="900" height="500"/>
  </clipPath>
</defs>
<polygon clip-path="url(#clip9601)" points="
0,500 900,500 900,0 0,0 
  " fill="#ffffff" fill-rule="evenodd" fill-opacity="1"/>
<defs>
  <clipPath id="clip9602">
    <rect x="180" y="0" width="631" height="500"/>
  </clipPath>
</defs>
<polygon clip-path="url(#clip9601)" points="
89.5495,458.025 880.315,458.025 880.315,11.811 89.5495,11.811 
  " fill="#ffffff" fill-rule="evenodd" fill-opacity="1"/>
<defs>
  <clipPath id="clip9603">
    <rect x="89" y="11" width="792" height="447"/>
  </clipPath>
</defs>
<polyline clip-path="url(#clip9603)" style="stroke:#000000; stroke-width:0.5; stroke-opacity:0.1; fill:none" points="
  111.93,458.025 111.93,11.811 
  "/>
<polyline clip-path="url(#clip9603)" style="stroke:#000000; stroke-width:0.5; stroke-opacity:0.1; fill:none" points="
  268.983,458.025 268.983,11.811 
  "/>
<polyline clip-path="url(#clip9603)" style="stroke:#000000; stroke-width:0.5; stroke-opacity:0.1; fill:none" points="
  426.037,458.025 426.037,11.811 
  "/>
<polyline clip-path="url(#clip9603)" style="stroke:#000000; stroke-width:0.5; stroke-opacity:0.1; fill:none" points="
  583.091,458.025 583.091,11.811 
  "/>
<polyline clip-path="url(#clip9603)" style="stroke:#000000; stroke-width:0.5; stroke-opacity:0.1; fill:none" points="
  740.145,458.025 740.145,11.811 
  "/>
<polyline clip-path="url(#clip9603)" style="stroke:#000000; stroke-width:0.5; stroke-opacity:0.1; fill:none" points="
  89.5495,437.768 880.315,437.768 
  "/>
<polyline clip-path="url(#clip9603)" style="stroke:#000000; stroke-width:0.5; stroke-opacity:0.1; fill:none" points="
  89.5495,334.436 880.315,334.436 
  "/>
<polyline clip-path="url(#clip9603)" style="stroke:#000000; stroke-width:0.5; stroke-opacity:0.1; fill:none" points="
  89.5495,231.104 880.315,231.104 
  "/>
<polyline clip-path="url(#clip9603)" style="stroke:#000000; stroke-width:0.5; stroke-opacity:0.1; fill:none" points="
  89.5495,127.772 880.315,127.772 
  "/>
<polyline clip-path="url(#clip9603)" style="stroke:#000000; stroke-width:0.5; stroke-opacity:0.1; fill:none" points="
  89.5495,24.4397 880.315,24.4397 
  "/>
<polyline clip-path="url(#clip9601)" style="stroke:#000000; stroke-width:1; stroke-opacity:1; fill:none" points="
  89.5495,458.025 880.315,458.025 
  "/>
<polyline clip-path="url(#clip9601)" style="stroke:#000000; stroke-width:1; stroke-opacity:1; fill:none" points="
  89.5495,458.025 89.5495,11.811 
  "/>
<polyline clip-path="url(#clip9601)" style="stroke:#000000; stroke-width:1; stroke-opacity:1; fill:none" points="
  111.93,458.025 111.93,451.332 
  "/>
<polyline clip-path="url(#clip9601)" style="stroke:#000000; stroke-width:1; stroke-opacity:1; fill:none" points="
  268.983,458.025 268.983,451.332 
  "/>
<polyline clip-path="url(#clip9601)" style="stroke:#000000; stroke-width:1; stroke-opacity:1; fill:none" points="
  426.037,458.025 426.037,451.332 
  "/>
<polyline clip-path="url(#clip9601)" style="stroke:#000000; stroke-width:1; stroke-opacity:1; fill:none" points="
  583.091,458.025 583.091,451.332 
  "/>
<polyline clip-path="url(#clip9601)" style="stroke:#000000; stroke-width:1; stroke-opacity:1; fill:none" points="
  740.145,458.025 740.145,451.332 
  "/>
<polyline clip-path="url(#clip9601)" style="stroke:#000000; stroke-width:1; stroke-opacity:1; fill:none" points="
  89.5495,437.768 101.411,437.768 
  "/>
<polyline clip-path="url(#clip9601)" style="stroke:#000000; stroke-width:1; stroke-opacity:1; fill:none" points="
  89.5495,334.436 101.411,334.436 
  "/>
<polyline clip-path="url(#clip9601)" style="stroke:#000000; stroke-width:1; stroke-opacity:1; fill:none" points="
  89.5495,231.104 101.411,231.104 
  "/>
<polyline clip-path="url(#clip9601)" style="stroke:#000000; stroke-width:1; stroke-opacity:1; fill:none" points="
  89.5495,127.772 101.411,127.772 
  "/>
<polyline clip-path="url(#clip9601)" style="stroke:#000000; stroke-width:1; stroke-opacity:1; fill:none" points="
  89.5495,24.4397 101.411,24.4397 
  "/>
<g clip-path="url(#clip9601)">
<text style="fill:#000000; fill-opacity:1; font-family:Arial,Helvetica Neue,Helvetica,sans-serif; font-size:18px; text-anchor:middle;" transform="rotate(0, 111.93, 478.125)" x="111.93" y="478.125">0.0</text>
</g>
<g clip-path="url(#clip9601)">
<text style="fill:#000000; fill-opacity:1; font-family:Arial,Helvetica Neue,Helvetica,sans-serif; font-size:18px; text-anchor:middle;" transform="rotate(0, 268.983, 478.125)" x="268.983" y="478.125">0.2</text>
</g>
<g clip-path="url(#clip9601)">
<text style="fill:#000000; fill-opacity:1; font-family:Arial,Helvetica Neue,Helvetica,sans-serif; font-size:18px; text-anchor:middle;" transform="rotate(0, 426.037, 478.125)" x="426.037" y="478.125">0.4</text>
</g>
<g clip-path="url(#clip9601)">
<text style="fill:#000000; fill-opacity:1; font-family:Arial,Helvetica Neue,Helvetica,sans-serif; font-size:18px; text-anchor:middle;" transform="rotate(0, 583.091, 478.125)" x="583.091" y="478.125">0.6</text>
</g>
<g clip-path="url(#clip9601)">
<text style="fill:#000000; fill-opacity:1; font-family:Arial,Helvetica Neue,Helvetica,sans-serif; font-size:18px; text-anchor:middle;" transform="rotate(0, 740.145, 478.125)" x="740.145" y="478.125">0.8</text>
</g>
<g clip-path="url(#clip9601)">
<text style="fill:#000000; fill-opacity:1; font-family:Arial,Helvetica Neue,Helvetica,sans-serif; font-size:18px; text-anchor:end;" transform="rotate(0, 80.5495, 444.268)" x="80.5495" y="444.268">2000</text>
</g>
<g clip-path="url(#clip9601)">
<text style="fill:#000000; fill-opacity:1; font-family:Arial,Helvetica Neue,Helvetica,sans-serif; font-size:18px; text-anchor:end;" transform="rotate(0, 80.5495, 340.936)" x="80.5495" y="340.936">4000</text>
</g>
<g clip-path="url(#clip9601)">
<text style="fill:#000000; fill-opacity:1; font-family:Arial,Helvetica Neue,Helvetica,sans-serif; font-size:18px; text-anchor:end;" transform="rotate(0, 80.5495, 237.604)" x="80.5495" y="237.604">6000</text>
</g>
<g clip-path="url(#clip9601)">
<text style="fill:#000000; fill-opacity:1; font-family:Arial,Helvetica Neue,Helvetica,sans-serif; font-size:18px; text-anchor:end;" transform="rotate(0, 80.5495, 134.272)" x="80.5495" y="134.272">8000</text>
</g>
<g clip-path="url(#clip9601)">
<text style="fill:#000000; fill-opacity:1; font-family:Arial,Helvetica Neue,Helvetica,sans-serif; font-size:18px; text-anchor:end;" transform="rotate(0, 80.5495, 30.9397)" x="80.5495" y="30.9397">10000</text>
</g>
<g clip-path="url(#clip9601)">
<text style="fill:#000000; fill-opacity:1; font-family:Arial,Helvetica Neue,Helvetica,sans-serif; font-size:21px; text-anchor:middle;" transform="rotate(0, 484.932, 497)" x="484.932" y="497">time</text>
</g>
<g clip-path="url(#clip9601)">
<text style="fill:#000000; fill-opacity:1; font-family:Arial,Helvetica Neue,Helvetica,sans-serif; font-size:21px; text-anchor:middle;" transform="rotate(-90, 18, 234.918)" x="18" y="234.918">worst case disturbance</text>
</g>
<polyline clip-path="url(#clip9603)" style="stroke:#483c8b; stroke-width:4; stroke-opacity:1; fill:none" points="
  111.93,24.4397 151.193,24.4397 190.456,24.4397 229.72,24.4397 268.983,24.4397 308.247,24.4397 347.51,24.4397 386.774,24.4397 426.037,24.4397 465.3,24.4397 
  504.564,24.4397 543.827,24.4397 583.091,24.4397 622.354,24.4397 661.618,24.4397 700.881,24.4397 740.145,24.4397 779.408,24.4397 818.671,24.4397 857.935,24.4397 
  
  "/>
<circle clip-path="url(#clip9603)" style="fill:#000000; stroke:none; fill-opacity:1" cx="111.93" cy="24.4397" r="4"/>
<circle clip-path="url(#clip9603)" style="fill:#483c8b; stroke:none; fill-opacity:1" cx="111.93" cy="24.4397" r="3"/>
<circle clip-path="url(#clip9603)" style="fill:#000000; stroke:none; fill-opacity:1" cx="151.193" cy="24.4397" r="4"/>
<circle clip-path="url(#clip9603)" style="fill:#483c8b; stroke:none; fill-opacity:1" cx="151.193" cy="24.4397" r="3"/>
<circle clip-path="url(#clip9603)" style="fill:#000000; stroke:none; fill-opacity:1" cx="190.456" cy="24.4397" r="4"/>
<circle clip-path="url(#clip9603)" style="fill:#483c8b; stroke:none; fill-opacity:1" cx="190.456" cy="24.4397" r="3"/>
<circle clip-path="url(#clip9603)" style="fill:#000000; stroke:none; fill-opacity:1" cx="229.72" cy="24.4397" r="4"/>
<circle clip-path="url(#clip9603)" style="fill:#483c8b; stroke:none; fill-opacity:1" cx="229.72" cy="24.4397" r="3"/>
<circle clip-path="url(#clip9603)" style="fill:#000000; stroke:none; fill-opacity:1" cx="268.983" cy="24.4397" r="4"/>
<circle clip-path="url(#clip9603)" style="fill:#483c8b; stroke:none; fill-opacity:1" cx="268.983" cy="24.4397" r="3"/>
<circle clip-path="url(#clip9603)" style="fill:#000000; stroke:none; fill-opacity:1" cx="308.247" cy="24.4397" r="4"/>
<circle clip-path="url(#clip9603)" style="fill:#483c8b; stroke:none; fill-opacity:1" cx="308.247" cy="24.4397" r="3"/>
<circle clip-path="url(#clip9603)" style="fill:#000000; stroke:none; fill-opacity:1" cx="347.51" cy="24.4397" r="4"/>
<circle clip-path="url(#clip9603)" style="fill:#483c8b; stroke:none; fill-opacity:1" cx="347.51" cy="24.4397" r="3"/>
<circle clip-path="url(#clip9603)" style="fill:#000000; stroke:none; fill-opacity:1" cx="386.774" cy="24.4397" r="4"/>
<circle clip-path="url(#clip9603)" style="fill:#483c8b; stroke:none; fill-opacity:1" cx="386.774" cy="24.4397" r="3"/>
<circle clip-path="url(#clip9603)" style="fill:#000000; stroke:none; fill-opacity:1" cx="426.037" cy="24.4397" r="4"/>
<circle clip-path="url(#clip9603)" style="fill:#483c8b; stroke:none; fill-opacity:1" cx="426.037" cy="24.4397" r="3"/>
<circle clip-path="url(#clip9603)" style="fill:#000000; stroke:none; fill-opacity:1" cx="465.3" cy="24.4397" r="4"/>
<circle clip-path="url(#clip9603)" style="fill:#483c8b; stroke:none; fill-opacity:1" cx="465.3" cy="24.4397" r="3"/>
<circle clip-path="url(#clip9603)" style="fill:#000000; stroke:none; fill-opacity:1" cx="504.564" cy="24.4397" r="4"/>
<circle clip-path="url(#clip9603)" style="fill:#483c8b; stroke:none; fill-opacity:1" cx="504.564" cy="24.4397" r="3"/>
<circle clip-path="url(#clip9603)" style="fill:#000000; stroke:none; fill-opacity:1" cx="543.827" cy="24.4397" r="4"/>
<circle clip-path="url(#clip9603)" style="fill:#483c8b; stroke:none; fill-opacity:1" cx="543.827" cy="24.4397" r="3"/>
<circle clip-path="url(#clip9603)" style="fill:#000000; stroke:none; fill-opacity:1" cx="583.091" cy="24.4397" r="4"/>
<circle clip-path="url(#clip9603)" style="fill:#483c8b; stroke:none; fill-opacity:1" cx="583.091" cy="24.4397" r="3"/>
<circle clip-path="url(#clip9603)" style="fill:#000000; stroke:none; fill-opacity:1" cx="622.354" cy="24.4397" r="4"/>
<circle clip-path="url(#clip9603)" style="fill:#483c8b; stroke:none; fill-opacity:1" cx="622.354" cy="24.4397" r="3"/>
<circle clip-path="url(#clip9603)" style="fill:#000000; stroke:none; fill-opacity:1" cx="661.618" cy="24.4397" r="4"/>
<circle clip-path="url(#clip9603)" style="fill:#483c8b; stroke:none; fill-opacity:1" cx="661.618" cy="24.4397" r="3"/>
<circle clip-path="url(#clip9603)" style="fill:#000000; stroke:none; fill-opacity:1" cx="700.881" cy="24.4397" r="4"/>
<circle clip-path="url(#clip9603)" style="fill:#483c8b; stroke:none; fill-opacity:1" cx="700.881" cy="24.4397" r="3"/>
<circle clip-path="url(#clip9603)" style="fill:#000000; stroke:none; fill-opacity:1" cx="740.145" cy="24.4397" r="4"/>
<circle clip-path="url(#clip9603)" style="fill:#483c8b; stroke:none; fill-opacity:1" cx="740.145" cy="24.4397" r="3"/>
<circle clip-path="url(#clip9603)" style="fill:#000000; stroke:none; fill-opacity:1" cx="779.408" cy="24.4397" r="4"/>
<circle clip-path="url(#clip9603)" style="fill:#483c8b; stroke:none; fill-opacity:1" cx="779.408" cy="24.4397" r="3"/>
<circle clip-path="url(#clip9603)" style="fill:#000000; stroke:none; fill-opacity:1" cx="818.671" cy="24.4397" r="4"/>
<circle clip-path="url(#clip9603)" style="fill:#483c8b; stroke:none; fill-opacity:1" cx="818.671" cy="24.4397" r="3"/>
<circle clip-path="url(#clip9603)" style="fill:#000000; stroke:none; fill-opacity:1" cx="857.935" cy="24.4397" r="4"/>
<circle clip-path="url(#clip9603)" style="fill:#483c8b; stroke:none; fill-opacity:1" cx="857.935" cy="24.4397" r="3"/>
<polyline clip-path="url(#clip9603)" style="stroke:#228b22; stroke-width:4; stroke-opacity:1; fill:none" points="
  111.93,24.4397 151.193,24.4397 190.456,24.8524 229.72,24.6094 268.983,24.4397 308.247,33.4144 347.51,81.8584 386.774,158.811 426.037,266.86 465.3,418.964 
  504.564,445.396 543.827,390.449 583.091,263.911 622.354,124.823 661.618,44.5076 700.881,28.025 740.145,24.7005 779.408,24.4397 818.671,24.4397 857.935,24.4397 
  
  "/>
<circle clip-path="url(#clip9603)" style="fill:#000000; stroke:none; fill-opacity:1" cx="111.93" cy="24.4397" r="4"/>
<circle clip-path="url(#clip9603)" style="fill:#228b22; stroke:none; fill-opacity:1" cx="111.93" cy="24.4397" r="3"/>
<circle clip-path="url(#clip9603)" style="fill:#000000; stroke:none; fill-opacity:1" cx="151.193" cy="24.4397" r="4"/>
<circle clip-path="url(#clip9603)" style="fill:#228b22; stroke:none; fill-opacity:1" cx="151.193" cy="24.4397" r="3"/>
<circle clip-path="url(#clip9603)" style="fill:#000000; stroke:none; fill-opacity:1" cx="190.456" cy="24.8524" r="4"/>
<circle clip-path="url(#clip9603)" style="fill:#228b22; stroke:none; fill-opacity:1" cx="190.456" cy="24.8524" r="3"/>
<circle clip-path="url(#clip9603)" style="fill:#000000; stroke:none; fill-opacity:1" cx="229.72" cy="24.6094" r="4"/>
<circle clip-path="url(#clip9603)" style="fill:#228b22; stroke:none; fill-opacity:1" cx="229.72" cy="24.6094" r="3"/>
<circle clip-path="url(#clip9603)" style="fill:#000000; stroke:none; fill-opacity:1" cx="268.983" cy="24.4397" r="4"/>
<circle clip-path="url(#clip9603)" style="fill:#228b22; stroke:none; fill-opacity:1" cx="268.983" cy="24.4397" r="3"/>
<circle clip-path="url(#clip9603)" style="fill:#000000; stroke:none; fill-opacity:1" cx="308.247" cy="33.4144" r="4"/>
<circle clip-path="url(#clip9603)" style="fill:#228b22; stroke:none; fill-opacity:1" cx="308.247" cy="33.4144" r="3"/>
<circle clip-path="url(#clip9603)" style="fill:#000000; stroke:none; fill-opacity:1" cx="347.51" cy="81.8584" r="4"/>
<circle clip-path="url(#clip9603)" style="fill:#228b22; stroke:none; fill-opacity:1" cx="347.51" cy="81.8584" r="3"/>
<circle clip-path="url(#clip9603)" style="fill:#000000; stroke:none; fill-opacity:1" cx="386.774" cy="158.811" r="4"/>
<circle clip-path="url(#clip9603)" style="fill:#228b22; stroke:none; fill-opacity:1" cx="386.774" cy="158.811" r="3"/>
<circle clip-path="url(#clip9603)" style="fill:#000000; stroke:none; fill-opacity:1" cx="426.037" cy="266.86" r="4"/>
<circle clip-path="url(#clip9603)" style="fill:#228b22; stroke:none; fill-opacity:1" cx="426.037" cy="266.86" r="3"/>
<circle clip-path="url(#clip9603)" style="fill:#000000; stroke:none; fill-opacity:1" cx="465.3" cy="418.964" r="4"/>
<circle clip-path="url(#clip9603)" style="fill:#228b22; stroke:none; fill-opacity:1" cx="465.3" cy="418.964" r="3"/>
<circle clip-path="url(#clip9603)" style="fill:#000000; stroke:none; fill-opacity:1" cx="504.564" cy="445.396" r="4"/>
<circle clip-path="url(#clip9603)" style="fill:#228b22; stroke:none; fill-opacity:1" cx="504.564" cy="445.396" r="3"/>
<circle clip-path="url(#clip9603)" style="fill:#000000; stroke:none; fill-opacity:1" cx="543.827" cy="390.449" r="4"/>
<circle clip-path="url(#clip9603)" style="fill:#228b22; stroke:none; fill-opacity:1" cx="543.827" cy="390.449" r="3"/>
<circle clip-path="url(#clip9603)" style="fill:#000000; stroke:none; fill-opacity:1" cx="583.091" cy="263.911" r="4"/>
<circle clip-path="url(#clip9603)" style="fill:#228b22; stroke:none; fill-opacity:1" cx="583.091" cy="263.911" r="3"/>
<circle clip-path="url(#clip9603)" style="fill:#000000; stroke:none; fill-opacity:1" cx="622.354" cy="124.823" r="4"/>
<circle clip-path="url(#clip9603)" style="fill:#228b22; stroke:none; fill-opacity:1" cx="622.354" cy="124.823" r="3"/>
<circle clip-path="url(#clip9603)" style="fill:#000000; stroke:none; fill-opacity:1" cx="661.618" cy="44.5076" r="4"/>
<circle clip-path="url(#clip9603)" style="fill:#228b22; stroke:none; fill-opacity:1" cx="661.618" cy="44.5076" r="3"/>
<circle clip-path="url(#clip9603)" style="fill:#000000; stroke:none; fill-opacity:1" cx="700.881" cy="28.025" r="4"/>
<circle clip-path="url(#clip9603)" style="fill:#228b22; stroke:none; fill-opacity:1" cx="700.881" cy="28.025" r="3"/>
<circle clip-path="url(#clip9603)" style="fill:#000000; stroke:none; fill-opacity:1" cx="740.145" cy="24.7005" r="4"/>
<circle clip-path="url(#clip9603)" style="fill:#228b22; stroke:none; fill-opacity:1" cx="740.145" cy="24.7005" r="3"/>
<circle clip-path="url(#clip9603)" style="fill:#000000; stroke:none; fill-opacity:1" cx="779.408" cy="24.4397" r="4"/>
<circle clip-path="url(#clip9603)" style="fill:#228b22; stroke:none; fill-opacity:1" cx="779.408" cy="24.4397" r="3"/>
<circle clip-path="url(#clip9603)" style="fill:#000000; stroke:none; fill-opacity:1" cx="818.671" cy="24.4397" r="4"/>
<circle clip-path="url(#clip9603)" style="fill:#228b22; stroke:none; fill-opacity:1" cx="818.671" cy="24.4397" r="3"/>
<circle clip-path="url(#clip9603)" style="fill:#000000; stroke:none; fill-opacity:1" cx="857.935" cy="24.4397" r="4"/>
<circle clip-path="url(#clip9603)" style="fill:#228b22; stroke:none; fill-opacity:1" cx="857.935" cy="24.4397" r="3"/>
<polygon clip-path="url(#clip9601)" points="
480.415,111.171 853.315,111.171 853.315,43.131 480.415,43.131 
  " fill="#ffffff" fill-rule="evenodd" fill-opacity="1"/>
<polyline clip-path="url(#clip9601)" style="stroke:#000000; stroke-width:1; stroke-opacity:1; fill:none" points="
  480.415,111.171 853.315,111.171 853.315,43.131 480.415,43.131 480.415,111.171 
  "/>
<polyline clip-path="url(#clip9601)" style="stroke:#483c8b; stroke-width:4; stroke-opacity:1; fill:none" points="
  489.415,65.811 543.415,65.811 
  "/>
<circle clip-path="url(#clip9601)" style="fill:#000000; stroke:none; fill-opacity:1" cx="520.915" cy="65.811" r="6"/>
<circle clip-path="url(#clip9601)" style="fill:#483c8b; stroke:none; fill-opacity:1" cx="520.915" cy="65.811" r="5"/>
<g clip-path="url(#clip9601)">
<text style="fill:#000000; fill-opacity:1; font-family:Arial,Helvetica Neue,Helvetica,sans-serif; font-size:18px; text-anchor:start;" transform="rotate(0, 552.415, 72.311)" x="552.415" y="72.311">without bilevel robustness objective</text>
</g>
<polyline clip-path="url(#clip9601)" style="stroke:#228b22; stroke-width:4; stroke-opacity:1; fill:none" points="
  489.415,88.491 543.415,88.491 
  "/>
<circle clip-path="url(#clip9601)" style="fill:#000000; stroke:none; fill-opacity:1" cx="520.915" cy="88.491" r="6"/>
<circle clip-path="url(#clip9601)" style="fill:#228b22; stroke:none; fill-opacity:1" cx="520.915" cy="88.491" r="5"/>
<g clip-path="url(#clip9601)">
<text style="fill:#000000; fill-opacity:1; font-family:Arial,Helvetica Neue,Helvetica,sans-serif; font-size:18px; text-anchor:start;" transform="rotate(0, 552.415, 94.991)" x="552.415" y="94.991">with bilevel robustness objective</text>
</g>
</svg>
