<?xml version="1.0" encoding="utf-8"?>
<svg xmlns="http://www.w3.org/2000/svg" xmlns:xlink="http://www.w3.org/1999/xlink" width="225" height="125" viewBox="0 0 900 500">
<defs>
  <clipPath id="clip7200">
    <rect x="0" y="0" width="2000" height="2000"/>
  </clipPath>
</defs>
<defs>
  <clipPath id="clip7201">
    <rect x="0" y="0" width="900" height="500"/>
  </clipPath>
</defs>
<polygon clip-path="url(#clip7201)" points="
0,500 900,500 900,0 0,0 
  " fill="#f0f0f0" fill-rule="evenodd" fill-opacity="1"/>
<defs>
  <clipPath id="clip7202">
    <rect x="180" y="0" width="631" height="500"/>
  </clipPath>
</defs>
<polygon clip-path="url(#clip7201)" points="
59.4418,458.025 880.315,458.025 880.315,11.811 59.4418,11.811 
  " fill="#f0f0f0" fill-rule="evenodd" fill-opacity="1"/>
<defs>
  <clipPath id="clip7203">
    <rect x="59" y="11" width="822" height="447"/>
  </clipPath>
</defs>
<polyline clip-path="url(#clip7203)" style="stroke:#000000; stroke-width:0.5; stroke-opacity:0.1; fill:none" points="
  82.6741,458.025 82.6741,11.811 
  "/>
<polyline clip-path="url(#clip7203)" style="stroke:#000000; stroke-width:0.5; stroke-opacity:0.1; fill:none" points="
  245.707,458.025 245.707,11.811 
  "/>
<polyline clip-path="url(#clip7203)" style="stroke:#000000; stroke-width:0.5; stroke-opacity:0.1; fill:none" points="
  408.741,458.025 408.741,11.811 
  "/>
<polyline clip-path="url(#clip7203)" style="stroke:#000000; stroke-width:0.5; stroke-opacity:0.1; fill:none" points="
  571.774,458.025 571.774,11.811 
  "/>
<polyline clip-path="url(#clip7203)" style="stroke:#000000; stroke-width:0.5; stroke-opacity:0.1; fill:none" points="
  734.808,458.025 734.808,11.811 
  "/>
<polyline clip-path="url(#clip7203)" style="stroke:#000000; stroke-width:0.5; stroke-opacity:0.1; fill:none" points="
  59.4418,454.113 880.315,454.113 
  "/>
<polyline clip-path="url(#clip7203)" style="stroke:#000000; stroke-width:0.5; stroke-opacity:0.1; fill:none" points="
  59.4418,310.889 880.315,310.889 
  "/>
<polyline clip-path="url(#clip7203)" style="stroke:#000000; stroke-width:0.5; stroke-opacity:0.1; fill:none" points="
  59.4418,167.664 880.315,167.664 
  "/>
<polyline clip-path="url(#clip7203)" style="stroke:#000000; stroke-width:0.5; stroke-opacity:0.1; fill:none" points="
  59.4418,24.4397 880.315,24.4397 
  "/>
<polyline clip-path="url(#clip7201)" style="stroke:#000000; stroke-width:1; stroke-opacity:1; fill:none" points="
  59.4418,458.025 880.315,458.025 
  "/>
<polyline clip-path="url(#clip7201)" style="stroke:#000000; stroke-width:1; stroke-opacity:1; fill:none" points="
  59.4418,458.025 59.4418,11.811 
  "/>
<polyline clip-path="url(#clip7201)" style="stroke:#000000; stroke-width:1; stroke-opacity:1; fill:none" points="
  82.6741,458.025 82.6741,451.332 
  "/>
<polyline clip-path="url(#clip7201)" style="stroke:#000000; stroke-width:1; stroke-opacity:1; fill:none" points="
  245.707,458.025 245.707,451.332 
  "/>
<polyline clip-path="url(#clip7201)" style="stroke:#000000; stroke-width:1; stroke-opacity:1; fill:none" points="
  408.741,458.025 408.741,451.332 
  "/>
<polyline clip-path="url(#clip7201)" style="stroke:#000000; stroke-width:1; stroke-opacity:1; fill:none" points="
  571.774,458.025 571.774,451.332 
  "/>
<polyline clip-path="url(#clip7201)" style="stroke:#000000; stroke-width:1; stroke-opacity:1; fill:none" points="
  734.808,458.025 734.808,451.332 
  "/>
<polyline clip-path="url(#clip7201)" style="stroke:#000000; stroke-width:1; stroke-opacity:1; fill:none" points="
  59.4418,454.113 71.7549,454.113 
  "/>
<polyline clip-path="url(#clip7201)" style="stroke:#000000; stroke-width:1; stroke-opacity:1; fill:none" points="
  59.4418,310.889 71.7549,310.889 
  "/>
<polyline clip-path="url(#clip7201)" style="stroke:#000000; stroke-width:1; stroke-opacity:1; fill:none" points="
  59.4418,167.664 71.7549,167.664 
  "/>
<polyline clip-path="url(#clip7201)" style="stroke:#000000; stroke-width:1; stroke-opacity:1; fill:none" points="
  59.4418,24.4397 71.7549,24.4397 
  "/>
<g clip-path="url(#clip7201)">
<text style="fill:#000000; fill-opacity:1; font-family:Arial,Helvetica Neue,Helvetica,sans-serif; font-size:18px; text-anchor:middle;" transform="rotate(0, 82.6741, 478.125)" x="82.6741" y="478.125">0.0</text>
</g>
<g clip-path="url(#clip7201)">
<text style="fill:#000000; fill-opacity:1; font-family:Arial,Helvetica Neue,Helvetica,sans-serif; font-size:18px; text-anchor:middle;" transform="rotate(0, 245.707, 478.125)" x="245.707" y="478.125">0.2</text>
</g>
<g clip-path="url(#clip7201)">
<text style="fill:#000000; fill-opacity:1; font-family:Arial,Helvetica Neue,Helvetica,sans-serif; font-size:18px; text-anchor:middle;" transform="rotate(0, 408.741, 478.125)" x="408.741" y="478.125">0.4</text>
</g>
<g clip-path="url(#clip7201)">
<text style="fill:#000000; fill-opacity:1; font-family:Arial,Helvetica Neue,Helvetica,sans-serif; font-size:18px; text-anchor:middle;" transform="rotate(0, 571.774, 478.125)" x="571.774" y="478.125">0.6</text>
</g>
<g clip-path="url(#clip7201)">
<text style="fill:#000000; fill-opacity:1; font-family:Arial,Helvetica Neue,Helvetica,sans-serif; font-size:18px; text-anchor:middle;" transform="rotate(0, 734.808, 478.125)" x="734.808" y="478.125">0.8</text>
</g>
<g clip-path="url(#clip7201)">
<text style="fill:#000000; fill-opacity:1; font-family:Arial,Helvetica Neue,Helvetica,sans-serif; font-size:18px; text-anchor:end;" transform="rotate(0, 50.4418, 460.613)" x="50.4418" y="460.613">10</text>
</g>
<g clip-path="url(#clip7201)">
<text style="fill:#000000; fill-opacity:1; font-family:Arial,Helvetica Neue,Helvetica,sans-serif; font-size:18px; text-anchor:end;" transform="rotate(0, 50.4418, 317.389)" x="50.4418" y="317.389">20</text>
</g>
<g clip-path="url(#clip7201)">
<text style="fill:#000000; fill-opacity:1; font-family:Arial,Helvetica Neue,Helvetica,sans-serif; font-size:18px; text-anchor:end;" transform="rotate(0, 50.4418, 174.164)" x="50.4418" y="174.164">30</text>
</g>
<g clip-path="url(#clip7201)">
<text style="fill:#000000; fill-opacity:1; font-family:Arial,Helvetica Neue,Helvetica,sans-serif; font-size:18px; text-anchor:end;" transform="rotate(0, 50.4418, 30.9397)" x="50.4418" y="30.9397">40</text>
</g>
<g clip-path="url(#clip7201)">
<text style="fill:#000000; fill-opacity:1; font-family:Arial,Helvetica Neue,Helvetica,sans-serif; font-size:21px; text-anchor:middle;" transform="rotate(0, 469.878, 497)" x="469.878" y="497">time</text>
</g>
<g clip-path="url(#clip7201)">
<text style="fill:#000000; fill-opacity:1; font-family:Arial,Helvetica Neue,Helvetica,sans-serif; font-size:21px; text-anchor:middle;" transform="rotate(-90, 18, 234.918)" x="18" y="234.918">worst case disturbance</text>
</g>
<polyline clip-path="url(#clip7203)" style="stroke:#2c7fb8; stroke-width:8; stroke-opacity:1; fill:none" points="
  82.6741,24.4397 123.432,24.4397 164.191,24.4397 204.949,24.4397 245.707,24.4397 286.466,24.4397 327.224,24.4397 367.983,24.4397 408.741,24.4397 449.499,24.4397 
  490.258,24.4397 531.016,24.4397 571.774,24.4397 612.533,24.4397 653.291,24.4397 694.049,24.4397 734.808,24.4397 775.566,24.4397 816.324,24.4397 857.083,24.4397 
  
  "/>
<polyline clip-path="url(#clip7203)" style="stroke:#7fcdbb; stroke-width:8; stroke-opacity:1; fill:none" points="
  82.6741,24.4397 123.432,24.4397 164.191,24.4397 204.949,56.0227 245.707,142.993 286.466,247.518 327.224,338.431 367.983,400.449 408.741,429.92 449.499,440.105 
  490.258,445.396 531.016,401.903 571.774,327.273 612.533,225.893 653.291,118.275 694.049,41.0901 734.808,24.4397 775.566,24.4397 816.324,24.4397 857.083,24.4397 
  
  "/>
<polygon clip-path="url(#clip7201)" points="
480.415,111.171 853.315,111.171 853.315,43.131 480.415,43.131 
  " fill="#ffffff" fill-rule="evenodd" fill-opacity="1"/>
<polyline clip-path="url(#clip7201)" style="stroke:#000000; stroke-width:1; stroke-opacity:1; fill:none" points="
  480.415,111.171 853.315,111.171 853.315,43.131 480.415,43.131 480.415,111.171 
  "/>
<polyline clip-path="url(#clip7201)" style="stroke:#2c7fb8; stroke-width:8; stroke-opacity:1; fill:none" points="
  489.415,65.811 543.415,65.811 
  "/>
<g clip-path="url(#clip7201)">
<text style="fill:#000000; fill-opacity:1; font-family:Arial,Helvetica Neue,Helvetica,sans-serif; font-size:18px; text-anchor:start;" transform="rotate(0, 552.415, 72.311)" x="552.415" y="72.311">without bilevel robustness objective</text>
</g>
<polyline clip-path="url(#clip7201)" style="stroke:#7fcdbb; stroke-width:8; stroke-opacity:1; fill:none" points="
  489.415,88.491 543.415,88.491 
  "/>
<g clip-path="url(#clip7201)">
<text style="fill:#000000; fill-opacity:1; font-family:Arial,Helvetica Neue,Helvetica,sans-serif; font-size:18px; text-anchor:start;" transform="rotate(0, 552.415, 94.991)" x="552.415" y="94.991">with bilevel robustness objective</text>
</g>
</svg>
